<?xml version="1.0" encoding="utf-8"?>
<!-- Generator: Adobe Illustrator 15.0.2, SVG Export Plug-In . SVG Version: 6.00 Build 0)  -->
<!DOCTYPE svg PUBLIC "-//W3C//DTD SVG 1.1//EN" "http://www.w3.org/Graphics/SVG/1.1/DTD/svg11.dtd">
<svg version="1.1" xmlns="http://www.w3.org/2000/svg" xmlns:xlink="http://www.w3.org/1999/xlink" x="0px" y="0px"
	 width="278.761px" height="66.834px" viewBox="0 0 278.761 66.834" enable-background="new 0 0 278.761 66.834"
	 xml:space="preserve">
<g id="Ebene_1">
	<g>
		<path fill="#005191" d="M71.145,49.254V17.573h2.275v29.628h18.919v2.053H71.145z"/>
		<path fill="#005191" d="M119.29,47.201v2.053H98.185V17.573h20.704v2.053H100.46v12.449h16.108v1.963H100.46v13.163H119.29z"/>
		<path fill="#005191" d="M148.159,44.301c-3.064,3.451-6.619,5.176-10.664,5.176c-2.142,0-4.127-0.46-5.957-1.383
			c-1.83-0.922-3.399-2.142-4.708-3.659c-1.31-1.517-2.336-3.241-3.079-5.176c-0.744-1.934-1.115-3.896-1.115-5.89
			c0-2.082,0.364-4.09,1.093-6.024c0.729-1.933,1.74-3.644,3.034-5.131s2.833-2.67,4.618-3.548c1.785-0.877,3.732-1.315,5.845-1.315
			c1.576,0,2.997,0.171,4.261,0.513c1.264,0.343,2.394,0.818,3.391,1.428c0.996,0.61,1.858,1.339,2.588,2.187
			c0.729,0.848,1.346,1.778,1.852,2.789l-1.874,1.115c-1.071-2.082-2.492-3.592-4.261-4.529c-1.77-0.937-3.77-1.405-6.001-1.405
			c-1.874,0-3.569,0.401-5.086,1.205c-1.517,0.803-2.811,1.859-3.882,3.168c-1.071,1.31-1.89,2.796-2.454,4.462
			c-0.565,1.666-0.848,3.377-0.848,5.132c0,1.874,0.327,3.651,0.982,5.332c0.654,1.681,1.554,3.161,2.699,4.439
			c1.145,1.279,2.491,2.298,4.038,3.057c1.546,0.759,3.213,1.138,4.998,1.138c1.934,0,3.771-0.446,5.511-1.339
			s3.414-2.305,5.02-4.238v-6.113h-7.184v-1.83h9.147v15.395h-1.963V44.301z"/>
		<path fill="#005191" d="M167.881,17.573h1.963l13.386,31.681h-2.409l-4.417-10.441h-15.126l-4.417,10.441h-2.454L167.881,17.573z
			 M175.778,36.938l-6.916-16.599l-7.05,16.599H175.778z"/>
		<path fill="#005191" d="M188.049,49.254V17.573h13.163c1.339,0,2.573,0.283,3.704,0.848c1.13,0.565,2.104,1.316,2.923,2.254
			c0.817,0.937,1.457,1.993,1.918,3.168c0.461,1.175,0.691,2.357,0.691,3.547c0,1.16-0.178,2.283-0.535,3.369
			s-0.863,2.061-1.517,2.923c-0.655,0.863-1.443,1.577-2.365,2.142c-0.922,0.565-1.934,0.937-3.034,1.115l7.897,12.315h-2.632
			l-7.675-11.958h-10.263v11.958H188.049z M190.324,35.198h11.11c1.011,0,1.934-0.223,2.767-0.669
			c0.833-0.446,1.546-1.033,2.142-1.763c0.595-0.729,1.049-1.562,1.361-2.499c0.312-0.937,0.469-1.896,0.469-2.878
			c0-1.011-0.186-1.985-0.558-2.923c-0.373-0.937-0.878-1.762-1.517-2.477c-0.64-0.714-1.383-1.286-2.231-1.718
			c-0.848-0.431-1.763-0.646-2.744-0.646h-10.798V35.198z"/>
		<path fill="#005191" d="M239.764,19.626h-11.601v29.628h-2.276V19.626h-11.601v-2.053h25.478V19.626z"/>
		<path fill="#005191" d="M245.786,49.254V17.573h2.275v31.681H245.786z"/>
		<path fill="#005191" d="M275.905,22.839c-2.053-2.291-4.953-3.437-8.701-3.437c-3.094,0-5.348,0.588-6.76,1.763
			c-1.414,1.176-2.119,2.76-2.119,4.752c0,1.012,0.178,1.853,0.535,2.521c0.356,0.669,0.914,1.242,1.673,1.718
			c0.759,0.477,1.718,0.878,2.878,1.205s2.559,0.669,4.194,1.026c1.696,0.356,3.235,0.751,4.618,1.182
			c1.383,0.432,2.559,0.976,3.525,1.629c0.967,0.655,1.71,1.458,2.23,2.41s0.781,2.127,0.781,3.524c0,1.398-0.275,2.618-0.826,3.659
			s-1.323,1.911-2.32,2.61c-0.996,0.699-2.186,1.227-3.568,1.584c-1.384,0.356-2.924,0.535-4.619,0.535
			c-4.938,0-9.117-1.576-12.538-4.729l1.205-1.83c1.339,1.399,2.974,2.507,4.908,3.325c1.933,0.818,4.104,1.227,6.515,1.227
			c2.766,0,4.93-0.506,6.492-1.517c1.562-1.012,2.342-2.544,2.342-4.597c0-1.041-0.208-1.926-0.624-2.654
			c-0.417-0.729-1.034-1.361-1.853-1.896c-0.818-0.536-1.852-0.996-3.101-1.384c-1.249-0.386-2.707-0.758-4.372-1.115
			c-1.696-0.357-3.191-0.736-4.484-1.138c-1.295-0.401-2.381-0.907-3.258-1.518c-0.877-0.609-1.539-1.346-1.985-2.208
			s-0.669-1.948-0.669-3.258c0-1.428,0.274-2.691,0.824-3.793c0.551-1.1,1.316-2.03,2.299-2.788
			c0.981-0.759,2.156-1.331,3.525-1.718c1.367-0.387,2.885-0.58,4.551-0.58c2.053,0,3.882,0.305,5.488,0.914
			c1.606,0.61,3.063,1.54,4.373,2.789L275.905,22.839z"/>
	</g>
	<g>
		<g>
			<path fill="#005191" d="M36.272,61.165h-2V39.084L6.861,54.956v-43.08l29.412,17.02V61.165z M8.861,15.345v36.143l25.412-14.714
				V30.05L8.861,15.345z"/>
		</g>
		<g>
			<path fill="#005191" d="M13.719,58.911V7.919l29.41,17.018v32.261h-2V43.105L13.719,58.911z M15.719,11.388v44.061l25.41-14.652
				V26.091L15.719,11.388z"/>
		</g>
		<g>
			<path fill="#005191" d="M20.579,62.875V3.947l29.414,17.026v32.264h-2v-6.186L20.579,62.875z M22.579,7.416v51.996l25.414-14.669
				V22.126L22.579,7.416z"/>
		</g>
		<g>
			<path fill="#005191" d="M27.439,66.834V0l29.439,16.998v32.838L27.439,66.834z M29.439,3.465v59.904l25.439-14.688V18.152
				L29.439,3.465z"/>
		</g>
		<g>
			<polygon fill="#005191" points="0,50.991 0,17.575 2,17.575 2,47.526 27.939,32.55 28.939,34.282 			"/>
		</g>
	</g>
</g>
<g id="Ebene_2">
</g>
</svg>
