<?xml version="1.0" encoding="utf-8"?>
<!-- Generator: Adobe Illustrator 16.0.0, SVG Export Plug-In . SVG Version: 6.00 Build 0)  -->
<!DOCTYPE svg PUBLIC "-//W3C//DTD SVG 1.1//EN" "http://www.w3.org/Graphics/SVG/1.1/DTD/svg11.dtd">
<svg version="1.1" id="Ebene_1" xmlns="http://www.w3.org/2000/svg" xmlns:xlink="http://www.w3.org/1999/xlink" x="0px" y="0px"
	 width="540.704px" height="132.03px" viewBox="-77.866 664.878 540.704 132.03"
	 enable-background="new -77.866 664.878 540.704 132.03" xml:space="preserve">
<g>
	<g>
		<path fill="#FFFFFF" d="M62.708,762.114v-62.598h4.505v58.56h37.434v4.038H62.708L62.708,762.114z"/>
		<path fill="#FFFFFF" d="M155.75,758.076v4.038h-41.784v-62.598h40.852v4.194h-36.347v24.542h31.842v3.883h-31.842v25.94H155.75
			L155.75,758.076z"/>
		<path fill="#FFFFFF" d="M212.756,752.329c-6.058,6.834-13.048,10.252-21.125,10.252c-4.194,0-8.232-0.933-11.805-2.796
			c-3.572-1.864-6.679-4.194-9.319-7.301c-2.641-2.951-4.66-6.369-6.058-10.252s-2.175-7.767-2.175-11.649
			c0-4.039,0.777-8.077,2.175-11.961c1.398-3.883,3.417-7.146,6.058-10.097c2.485-2.951,5.592-5.281,9.164-6.989
			c3.573-1.709,7.301-2.641,11.495-2.641c3.106,0,5.902,0.311,8.388,1.087c2.485,0.621,4.66,1.554,6.679,2.796
			c2.02,1.243,3.728,2.641,5.126,4.35c1.398,1.708,2.641,3.572,3.728,5.437l-3.728,2.175c-2.175-4.039-4.971-7.146-8.388-9.01
			c-3.573-1.863-7.456-2.796-11.805-2.796c-3.728,0-6.99,0.777-10.097,2.33c-2.951,1.554-5.592,3.729-7.611,6.213
			c-2.175,2.642-3.728,5.593-4.815,8.854s-1.708,6.679-1.708,10.097c0,3.728,0.621,7.145,1.864,10.563
			c1.243,3.262,3.107,6.213,5.281,8.698c2.33,2.485,4.971,4.504,7.922,6.058c3.106,1.554,6.369,2.175,9.941,2.175
			c3.883,0,7.456-0.933,10.873-2.641c3.417-1.709,6.679-4.505,9.941-8.388v-12.116h-14.135v-3.572h18.018v30.444h-3.883V752.329
			L212.756,752.329z"/>
		<path fill="#FFFFFF" d="M250.501,699.517h3.883l26.406,62.598h-4.815l-8.698-20.658h-29.824l-8.698,20.658h-4.815L250.501,699.517
			z M266.035,737.883l-13.669-32.774l-13.98,32.774H266.035z"/>
		<path fill="#FFFFFF" d="M290.266,762.114v-62.598h25.94c2.641,0,5.126,0.621,7.301,1.709c2.175,1.087,4.193,2.641,5.747,4.504
			c1.553,1.864,2.951,3.884,3.728,6.214c0.933,2.33,1.398,4.66,1.398,6.989c0,2.33-0.311,4.505-1.088,6.68
			c-0.776,2.175-1.708,4.038-2.951,5.747c-1.242,1.709-2.796,3.106-4.659,4.194c-1.864,1.087-3.884,1.863-6.059,2.174l15.533,24.388
			h-5.281l-15.223-23.61h-20.348v23.61L290.266,762.114L290.266,762.114z M294.771,734.466h21.901c2.02,0,3.884-0.466,5.437-1.397
			c1.709-0.933,3.106-2.02,4.194-3.418c1.242-1.397,2.02-3.106,2.641-4.971c0.621-1.863,0.932-3.728,0.932-5.747
			c0-2.019-0.311-3.883-1.087-5.747c-0.777-1.864-1.709-3.417-2.951-4.971c-1.243-1.397-2.796-2.485-4.35-3.417
			s-3.417-1.243-5.437-1.243h-21.28V734.466L294.771,734.466z"/>
		<path fill="#FFFFFF" d="M390.299,703.711H367.31v58.559h-4.505v-58.559h-22.988v-4.039h50.327L390.299,703.711L390.299,703.711z"
			/>
		<path fill="#FFFFFF" d="M399.929,762.114v-62.598h4.505v62.598H399.929z"/>
		<path fill="#FFFFFF" d="M457.246,709.924c-4.039-4.505-9.786-6.835-17.242-6.835c-6.058,0-10.563,1.088-13.358,3.418
			s-4.193,5.437-4.193,9.319c0,2.02,0.311,3.729,1.087,4.971c0.776,1.243,1.864,2.485,3.262,3.417
			c1.554,0.933,3.418,1.709,5.747,2.33c2.33,0.622,5.126,1.398,8.232,2.02c3.418,0.776,6.369,1.554,9.165,2.33
			s5.126,1.864,6.989,3.262c1.864,1.243,3.418,2.951,4.35,4.815c1.087,1.864,1.554,4.193,1.554,6.99c0,2.795-0.622,5.125-1.554,7.3
			c-1.087,2.02-2.641,3.729-4.66,5.126c-2.019,1.398-4.349,2.485-6.989,3.106c-2.796,0.777-5.747,1.088-9.165,1.088
			c-9.785,0-18.018-3.106-24.853-9.32l2.33-3.572c2.641,2.796,5.902,4.971,9.631,6.523c3.883,1.554,8.076,2.485,12.892,2.485
			c5.437,0,9.786-0.932,12.893-2.951s4.66-4.971,4.66-9.164c0-2.02-0.466-3.729-1.243-5.281c-0.776-1.398-2.019-2.641-3.728-3.729
			c-1.554-1.087-3.728-2.019-6.058-2.796c-2.485-0.776-5.281-1.553-8.699-2.174c-3.417-0.777-6.368-1.398-8.854-2.175
			s-4.66-1.864-6.368-2.951c-1.709-1.243-3.106-2.641-3.884-4.35c-0.932-1.709-1.397-3.883-1.397-6.368
			c0-2.796,0.621-5.281,1.708-7.456c1.088-2.175,2.641-4.039,4.505-5.437c1.864-1.554,4.194-2.641,6.99-3.417
			c2.641-0.777,5.747-1.088,9.009-1.088c4.039,0,7.611,0.621,10.873,1.864c3.106,1.242,6.058,3.106,8.698,5.437L457.246,709.924z"/>
	</g>
	<g>
		<g>
			<path fill="#FFFFFF" d="M-6.104,785.725h-4.039v-43.647l-54.055,31.377v-85.121l58.093,33.707
				C-6.104,722.039-6.104,785.725-6.104,785.725z M-60.313,695.168v71.451l50.171-29.047v-13.358L-60.313,695.168z"/>
		</g>
		<g>
			<path fill="#FFFFFF" d="M-50.683,781.221V680.566L7.41,714.273v63.685H3.527v-27.959L-50.683,781.221z M-46.8,687.401v87.14
				l50.171-28.892v-29.202L-46.8,687.401z"/>
		</g>
		<g>
			<path fill="#FFFFFF" d="M-37.169,789.143V672.645l58.093,33.707v63.84h-3.883v-12.271L-37.169,789.143z M-33.131,679.479v102.828
				l50.171-29.047v-44.735L-33.131,679.479z"/>
		</g>
		<g>
			<path fill="#FFFFFF" d="M-23.656,796.908v-132.03l58.249,33.552v64.928L-23.656,796.908z M-19.617,671.713v118.361l50.327-29.047
				V700.76L-19.617,671.713z"/>
		</g>
		<g>
			<polygon fill="#FFFFFF" points="-77.866,765.688 -77.866,699.517 -73.828,699.517 -73.828,758.853 -22.568,729.185 
				-20.705,732.602 			"/>
		</g>
	</g>
</g>
</svg>
