<?xml version="1.0" encoding="iso-8859-1"?>
<!-- Generator: Adobe Illustrator 15.1.0, SVG Export Plug-In . SVG Version: 6.00 Build 0)  -->
<!DOCTYPE svg PUBLIC "-//W3C//DTD SVG 1.1//EN" "http://www.w3.org/Graphics/SVG/1.1/DTD/svg11.dtd">
<svg version="1.1" id="Layer_3" xmlns="http://www.w3.org/2000/svg" xmlns:xlink="http://www.w3.org/1999/xlink" x="0px" y="0px"
	 width="146.05px" height="182.1px" viewBox="0 0 146.05 182.1" style="enable-background:new 0 0 146.05 182.1;"
	 xml:space="preserve">
<symbol  id="flash0.ai_x2F_Layer_3_x2F__x3C_Path_x3E_" viewBox="0 -23.05 56.6 23.056">
	<g id="Layer_1_2_">
		<path style="fill-rule:evenodd;clip-rule:evenodd;fill:#7EB8BD;" d="M49.3-17.2c2.767-2.066,5.2-4.017,7.3-5.85
			c-1.633,1.133-3.633,2.367-6,3.7c-4.7,2.667-8.817,4.483-12.35,5.45C35.117-13.033,32-12.733,28.9-13c-3.433-0.333-6-0.333-7.7,0
			c-1.867,0.367-8.934,1.567-21.2,3.6c0.933,1,2.1,2.1,3.5,3.3c2.833,2.367,5.45,3.967,7.85,4.8C13.817-0.433,16.233,0,18.6,0
			c1.5,0.033,3.967-0.067,7.4-0.3c2.967-0.133,5.933-0.983,8.9-2.55c1.467-0.8,2.65-1.583,3.55-2.35
			C35.317-5.433,32.833-5.75,31-6.15c-1.467-0.333-1.983-0.684-1.55-1.05c0.533-0.433,2.7-1.216,6.5-2.35
			C39.317-10.55,43.767-13.1,49.3-17.2z"/>
	</g>
</symbol>
<symbol  id="flash0.ai_x2F_Layer_3_x2F__x3C_Path_x3E__x5F_0" viewBox="0 -36.975 44.35 36.948">
	<g id="Layer_1_3_">
		<path style="fill-rule:evenodd;clip-rule:evenodd;fill:#7EB8D6;" d="M43.05-30.25c0.703-2.65,1.136-4.892,1.3-6.725
			c-0.307,2.724-2.857,5.916-7.65,9.575c-2.167,1.633-5.833,4-11,7.1c-1.067,0.633-3.3,1.45-6.7,2.45
			c-4.367,1.333-7.35,2.3-8.95,2.9C2.683-12.117-0.633-8.583,0.1-4.35c0.6,3.367,4.367,4.767,11.3,4.2c1.7-0.133,3.5-0.383,5.4-0.75
			c3.867-0.733,7.55-2.417,11.05-5.05c3.233-2.433,6.017-5.433,8.35-9C39.3-19.683,41.583-24.783,43.05-30.25z"/>
	</g>
</symbol>
<symbol  id="flash0.ai_x2F_Layer_3_x2F__x3C_Path_x3E__x5F_1" viewBox="0 -49.9 32.613 49.868">
	<g id="Layer_1_4_">
		<path style="fill-rule:evenodd;clip-rule:evenodd;fill:#2EB8DB;" d="M31.15-18.8c-1.333-1.667-4.383-3.8-9.15-6.4
			c-4.533-2.5-8.083-5.55-10.65-9.15c-0.9-1.267-1.983-2.55-3.25-3.85c-1.267-1.3-2.35-2.566-3.25-3.8
			c-0.4-0.567-1.217-1.883-2.45-3.95c-1.233-2.1-2.033-3.417-2.4-3.95c1.433,6.533,2.25,10.383,2.45,11.55
			c0.566,3.033,0.9,6.067,1,9.1c0.066,4.7,0.167,8.25,0.3,10.65c0.233,4.133,0.817,7.583,1.75,10.35C6.067-6.583,7.033-5,8.4-3.5
			c1.533,1.733,3.117,2.817,4.75,3.25c1.5,0.4,2.967,0.25,4.4-0.45c0.034-0.033,1.284-0.867,3.75-2.5c4.7-3.2,7.617-5.4,8.75-6.6
			C33.05-13,33.417-16,31.15-18.8z"/>
	</g>
</symbol>
<symbol  id="flash0.ai_x2F_Layer_3_x2F__x3C_Path_x3E__x5F_2" viewBox="0.022 -22.794 36.578 22.795">
	<g id="Layer_1_8_">
		<path style="fill-rule:evenodd;clip-rule:evenodd;fill:#7EB8D6;" d="M35.9-2.45C36.067-2.517,36.3-2.7,36.6-3
			c-4.434,0.967-8.717-0.017-12.85-2.95c-3.333-2.367-6.333-5.75-9-10.15c-1.3-2.233-2.733-3.933-4.3-5.1c-2-1.433-4.1-1.9-6.3-1.4
			c-2.1,0.467-3.4,1.467-3.9,3C-0.183-18.3,0-16.683,0.8-14.75c0.067,0.267,0.167,0.5,0.3,0.7c1.367,2.9,3.367,5.45,6,7.65
			c2.5,2.1,5.333,3.7,8.5,4.8c2.967,1.033,6.217,1.567,9.75,1.6C29.383,0.033,32.6-0.65,35-2.05C35.167-2.15,35.467-2.283,35.9-2.45
			z"/>
	</g>
</symbol>
<symbol  id="flash0.ai_x2F_Layer_3_x2F__x3C_Path_x3E__x5F_3" viewBox="0.004 -18.439 22.234 18.428">
	<g id="Layer_1_7_">
		<path style="fill-rule:evenodd;clip-rule:evenodd;fill:#2EB8DB;" d="M21.8-12.05c0.6-2.5,0.583-4.317-0.05-5.45
			c-0.667-1.2-1.35-1.25-2.05-0.15c-0.733,1.566-1.267,2.533-1.6,2.9c-1.2,1.333-2.783,2.083-4.75,2.25
			c-2.4-0.033-4.217-0.033-5.45,0c-2.1,0.033-2.867,0.467-2.3,1.3c0.409,0.546,1.001,0.854,1.775,0.925L4.95-10.15
			C3.017-10.05,1.667-9.8,0.9-9.4C0.167-9-0.117-8.483,0.05-7.85c0.267,1.267,1.417,2.2,3.45,2.8c2.867,0.9,4.35,1.383,4.45,1.45
			C7.917-3.533,7.633-3.167,7.1-2.5C6.733-2.033,6.567-1.633,6.6-1.3c0.066,0.633,0.65,1.033,1.75,1.2
			c0.867,0.133,1.667,0.117,2.4-0.05c1.4-0.3,3.05-1.184,4.95-2.65c1.8-1.4,3.133-2.767,4-4.1C20.567-8.2,21.267-9.917,21.8-12.05z"
			/>
	</g>
</symbol>
<symbol  id="flash0.ai_x2F_Layer_3_x2F__x3C_Path_x3E__x5F_4" viewBox="0.05 -30.3 49.332 30.314">
	<g id="Layer_1_9_">
		<path style="fill-rule:evenodd;clip-rule:evenodd;fill:#7EB8DE;" d="M45.45-19.9c-1.434-0.233-3.25-0.167-5.45,0.2
			c-2.267,0.434-3.833,0.7-4.7,0.8c-2.2,0.233-5.066-0.1-8.6-1c-5.6-1.4-8.434-2.1-8.5-2.1c-3.133-0.567-6.317-1.6-9.55-3.1
			c-3.2-1.433-6.066-3.167-8.6-5.2C2.283-27.033,5.933-23.4,11-19.4c1.367,1.1,4.117,3.583,8.25,7.45
			c3.333,3.133,6.183,5.467,8.55,7c3.434,2.267,6.717,3.767,9.85,4.5c4.2,1,7.517,0.383,9.95-1.85c1.566-1.434,2.1-2.967,1.6-4.6
			c-0.467-1.633-1.3-2-2.5-1.1c-1.2,0.867-2.983,1.4-5.35,1.6c-2.633,0.233-5.067-0.083-7.3-0.95c-2.066-0.8-3.617-1.767-4.65-2.9
			c-1.066-1.2-1.1-1.55-0.1-1.05c0.6,0.3,3.133,0.683,7.6,1.15c4.533,0.5,6.2,0.6,5,0.3c-0.9-0.267-1.767-0.7-2.6-1.3l-1-0.85
			l2.7,0.2c2.1-0.034,3.85-0.434,5.25-1.2c1.633-0.933,2.35-2.25,2.15-3.95C48.2-18.617,47.217-19.6,45.45-19.9z"/>
	</g>
</symbol>
<symbol  id="flash0.ai_x2F_Layer_3_x2F__x3C_Path_x3E__x5F_5" viewBox="-0.01 -56.4 37.103 56.409">
	<g id="Layer_1_10_">
		<path style="fill-rule:evenodd;clip-rule:evenodd;fill:#7EB8D6;" d="M28.3-8.4c2.367-3.434,4.1-7.717,5.2-12.85
			c0.667-3,1.45-7.583,2.35-13.75c1.767-9.467,1.65-16.6-0.35-21.4c-0.533,1.1-0.967,2.5-1.3,4.2c-0.3,1.934-0.55,3.383-0.75,4.35
			c-2.1,9.5-6,17.867-11.7,25.1c-1.867,2.333-3.95,4.367-6.25,6.1c-1.8,1.367-4.267,2.917-7.4,4.65C2.5-9-0.2-6.133,0-3.4
			c0.133,2.066,1.317,3.117,3.55,3.15C5.183-0.25,7-0.75,9-1.75c1.5-0.767,3.417-1.967,5.75-3.6
			c2.486-1.763,3.994-3.122,4.525-4.075c-0.97,2.298-1.629,4.14-1.975,5.525c-0.667,2.733-0.033,4.033,1.9,3.9
			c0.433-0.067,0.85-0.183,1.25-0.35C22.683-1.383,25.3-4.067,28.3-8.4z"/>
	</g>
</symbol>
<symbol  id="flash0.ai_x2F_Layer_3_x2F__x3C_Path_x3E__x5F_6" viewBox="0 -50.85 52.244 50.838">
	<g id="Layer_1_11_">
		<path style="fill-rule:evenodd;clip-rule:evenodd;fill:#2EB8DB;" d="M43.75-19.75c-2.667-1.767-6.467-3.767-11.4-6
			c-10.567-4.7-18.117-9.2-22.65-13.5c-3-2.867-6.233-6.733-9.7-11.6c0.633,1.467,1.3,3.25,2,5.35c1.433,4.233,2.417,8,2.95,11.3
			c0.8,5.233,1.783,10,2.95,14.3C9.967-12.4,12.317-7.433,14.95-5c1.3,1.233,2.7,1.783,4.2,1.65c1.467-0.233,1.233-1.933-0.7-5.1
			c-1.934-3.233-2.667-4.917-2.2-5.05c1.1,0.533,3.267,2.95,6.5,7.25c2.7,3.633,5.367,5.35,8,5.15c0.933-0.3,0.667-1.3-0.8-3
			c-1.967-1.967-3.233-3.316-3.8-4.05c-1.767-2.367-3.083-4.15-3.95-5.35c-1.5-2.067-2.7-3.917-3.6-5.55
			c-2.033-3.733-3.267-6.017-3.7-6.85c-0.633-1.333-0.683-1.75-0.15-1.25c2.033,1.9,5.667,5.95,10.9,12.15
			C30.083-9.7,33.9-5.833,37.1-3.4c1.7,1.333,3.383,2.283,5.05,2.85c2.133,0.733,3.983,0.716,5.55-0.05c2.033-1,3.4-2.533,4.1-4.6
			c0.667-2,0.583-4.066-0.25-6.2C50.45-14.267,47.85-17.05,43.75-19.75z"/>
	</g>
</symbol>
<symbol  id="flash0.ai_x2F_Layer_3_x2F__x3C_Path_x3E__x5F_8" viewBox="0.049 -14.456 56.601 14.46">
	<g id="Layer_1_6_">
		<path style="fill-rule:evenodd;clip-rule:evenodd;fill:#0D5069;" d="M56.65-9.6c-0.066-0.066-0.1-0.083-0.1-0.05
			c-1.767-0.434-3.966-0.583-6.6-0.45c-1.8,0.067-3.184,0.133-4.15,0.2c-1.733,0.066-2.533,0.033-2.4-0.1
			c0.233-0.2,0.7-0.35,1.4-0.45c1.4-0.4,1.317-0.7-0.25-0.9c-0.767-0.1-2.417-0.217-4.95-0.35c-1.067-0.1-1.517-0.216-1.35-0.35
			c0.5-0.3,1.517-0.617,3.05-0.95c0.867-0.167,1.034-0.45,0.5-0.85c-0.466-0.367-1.9-0.566-4.3-0.6c-2.233-0.033-4.1,0.067-5.6,0.3
			c-3.767,0.6-6.433,0.983-8,1.15c-3.033,0.333-5.767,0.45-8.2,0.35c-1.2-0.067-2.667-0.184-4.4-0.35
			c-2.2-0.233-3.667-0.383-4.4-0.45c-3.233-0.267-5.45-0.283-6.65-0.05c-0.567,0.4,0.067,0.967,1.9,1.7
			c2.767,1,4.983,1.867,6.65,2.6c-1.833-0.4-4.183-0.767-7.05-1.1C1.05-10.167,3.2-9.083,8.2-7.05C9.033-6.717,11.533-5.367,15.7-3
			c3,1.7,5.716,2.683,8.15,2.95c2.167,0.233,4.566-0.3,7.2-1.6c1.467-0.767,3.75-1.983,6.85-3.65c1.033-0.434,2-0.733,2.9-0.9
			c0.333-0.066,1.3-0.183,2.9-0.35c2.8-0.3,5.483-0.767,8.05-1.4C54.317-8.617,55.95-9.167,56.65-9.6z"/>
	</g>
</symbol>
<symbol  id="flash0.ai_x2F_Layer_3_x2F__x3C_Path_x3E__x5F_9" viewBox="0.017 -38.05 27.548 38.075">
	<g id="Layer_1_5_">
		<path style="fill-rule:evenodd;clip-rule:evenodd;fill:#2EB8DB;" d="M26.5-14.65c-1.3-2.4-3.517-4.85-6.65-7.35
			c-3.533-2.833-6.467-4.15-8.8-3.95c0.034,0.467,0.184,1.083,0.45,1.85c0.3,0.9,0.483,1.483,0.55,1.75
			c-2.367-1.5-4.55-3.917-6.55-7.25c-3.233-5.367-4.95-8.183-5.15-8.45c-0.333,0.933-0.417,2.083-0.25,3.45
			c0.267,1.567,0.467,2.733,0.6,3.5c0.033,0.233,0.75,3.067,2.15,8.5c0.867,3.434,1.167,6.3,0.9,8.6c-0.467,4.367-0.7,6.75-0.7,7.15
			c0.1,2.9,1.117,4.867,3.05,5.9c2.467,1.3,5.65,1.3,9.55,0c3.067-1,5.983-2.55,8.75-4.65C27.733-8.167,28.433-11.183,26.5-14.65z"
			/>
	</g>
</symbol>
<g>
	
		<radialGradient id="SVGID_1_" cx="-72.8091" cy="-109.9385" r="54.2016" gradientTransform="matrix(-0.9961 0.0888 -0.1012 -0.9774 0.1991 1.9141)" gradientUnits="userSpaceOnUse">
		<stop  offset="0.0118" style="stop-color:#2BB8A6"/>
		<stop  offset="0.2078" style="stop-color:#2DAEA3"/>
		<stop  offset="0.5412" style="stop-color:#32949B"/>
		<stop  offset="0.9608" style="stop-color:#3A6A8D"/>
		<stop  offset="1" style="stop-color:#3B668C"/>
	</radialGradient>
	<path style="fill-rule:evenodd;clip-rule:evenodd;fill:url(#SVGID_1_);" d="M92.3,61.4c0.867,9.6-1.316,22.217-6.55,37.85
		c-1.2,3.634-2.55,5.45-4.05,5.45c-1.566,0-2.95-2.066-4.15-6.2c-0.566-2.033-1.416-5.75-2.55-11.15
		c-0.8-3.833-1.667-6.783-2.6-8.85c-0.7-1.533-2.217-4.4-4.55-8.6c-1.867-3.367-2.934-5.583-3.2-6.65
		c-0.3-1.233,2.35-1.917,7.95-2.05c2.8-0.034,5.617,0.033,8.45,0.2H92.3z"/>
	
		<radialGradient id="SVGID_2_" cx="-42.228" cy="-65.7686" r="173.0274" gradientTransform="matrix(-0.9987 -0.0514 0.0303 -0.8234 -0.4266 11.5789)" gradientUnits="userSpaceOnUse">
		<stop  offset="0.0118" style="stop-color:#2BB8A6"/>
		<stop  offset="0.2078" style="stop-color:#2DAEA3"/>
		<stop  offset="0.5412" style="stop-color:#32949B"/>
		<stop  offset="0.9608" style="stop-color:#3A6A8D"/>
		<stop  offset="1" style="stop-color:#3B668C"/>
	</radialGradient>
	<path style="fill-rule:evenodd;clip-rule:evenodd;fill:url(#SVGID_2_);" d="M37.1,37.2c2.533,2.367,4.917,4.833,7.15,7.4l12.6,21.6
		c-0.867,0.2-2.35,1.283-4.45,3.25c-1.167,1.133-3,2.9-5.5,5.3c-2.7,2.467-4.867,3.95-6.5,4.45c-2.633,0.767-4.25-0.717-4.85-4.45
		c-0.633-3.8-1.8-5.517-3.5-5.15c-0.966,0.2-2.767,1.566-5.4,4.1c-1,0.966-2.683,3.733-5.05,8.3c-1.867,3.567-3.45,5.267-4.75,5.1
		c-1.833-0.233-3.333-2.25-4.5-6.05c-1.233-4.1-1.434-8.6-0.6-13.5c0.4-2.333,0.4-3.55,0-3.65c-0.267-0.033-0.85,0.55-1.75,1.75
		c-2.133,2.9-3.267,3.633-3.4,2.2c-0.367-3.267,1.333-8.8,5.1-16.6c4.433-9.167,9.6-15.717,15.5-19.65
		C28.733,30.567,32.033,32.433,37.1,37.2z"/>
	<g>
		
			<radialGradient id="SVGID_3_" cx="120.6973" cy="58.7168" r="39.8889" gradientTransform="matrix(0.9717 -0.2362 -0.2777 -1.1426 30.1737 124.1463)" gradientUnits="userSpaceOnUse">
			<stop  offset="0.0118" style="stop-color:#2BB8A6"/>
			<stop  offset="0.2078" style="stop-color:#2DAEA3"/>
			<stop  offset="0.5412" style="stop-color:#32949B"/>
			<stop  offset="0.9608" style="stop-color:#3A6A8D"/>
			<stop  offset="1" style="stop-color:#3B668C"/>
		</radialGradient>
		<path style="fill-rule:evenodd;clip-rule:evenodd;fill:url(#SVGID_3_);" d="M125.35,23c0.934,1.967-0.35,2.533-3.85,1.7l-5.55-1.8
			l5,1.8c3.967,1.633,7.583,3.566,10.85,5.8c3.667,2.533,6.917,6.417,9.75,11.65c2.533,4.633,4.017,8.817,4.45,12.55
			c0.3,2.733-1.333,2.933-4.9,0.6c-4.666-3.5-8.033-5.8-10.1-6.9c-2.866-1.533-6.684-2.517-11.45-2.95
			c-7.833-0.7-11.8-1.05-11.899-1.05c-3.134-0.5-5.834-1.417-8.101-2.75c-5.233-3.033-9.467-5.767-12.7-8.2
			c-6.566-4.967-8.866-8.467-6.899-10.5c2.967-3.034,5.85-5.3,8.649-6.8c3.867-2.033,8.084-2.933,12.65-2.7
			c5.134,0.267,10.134,1.35,15,3.25C121.217,18.633,124.25,20.733,125.35,23z"/>
		
			<use xlink:href="#flash0.ai_x2F_Layer_3_x2F__x3C_Path_x3E_"  width="56.6" height="23.056" y="-23.05" transform="matrix(1 0 0 -1 78.5 15.5498)" style="overflow:visible;opacity:0.5117;enable-background:new    ;"/>
	</g>
	
		<radialGradient id="SVGID_4_" cx="-15.0488" cy="-21.5464" r="100.4076" gradientTransform="matrix(-0.5097 0.8604 0.7613 0.4659 34.7827 21.2849)" gradientUnits="userSpaceOnUse">
		<stop  offset="0" style="stop-color:#38ADA6"/>
		<stop  offset="0.2549" style="stop-color:#3FA3A3"/>
		<stop  offset="0.6824" style="stop-color:#518A99"/>
		<stop  offset="1" style="stop-color:#627291"/>
	</radialGradient>
	<path style="fill-rule:evenodd;clip-rule:evenodd;fill:url(#SVGID_4_);" d="M68.1,14c6.466,2.733,8.534,9.05,6.2,18.95
		c-0.866,3.7-2.2,7.117-4,10.25c-1.767,3-3.316,4.667-4.65,5c-2.4,0.6-5.383-0.2-8.95-2.4c-3.2-1.933-5.45-3.966-6.75-6.1
		c-0.934-1.434-3.317-3.883-7.15-7.35c-4.466-3.867-7.517-6.583-9.15-8.15c-2.5-2.333-3.233-4.233-2.2-5.7
		c1-1.467,4.15-2.933,9.45-4.4c4.434-1.233,10.3-1.617,17.6-1.15C62.133,13.183,65.333,13.533,68.1,14z"/>
	<g>
		
			<radialGradient id="SVGID_5_" cx="96.0908" cy="-77.627" r="87.0666" gradientTransform="matrix(0.581 0.8139 0.7872 -0.5453 124.9263 -86.5348)" gradientUnits="userSpaceOnUse">
			<stop  offset="0" style="stop-color:#38ADA6"/>
			<stop  offset="0.2549" style="stop-color:#3FA3A3"/>
			<stop  offset="0.6824" style="stop-color:#518A99"/>
			<stop  offset="1" style="stop-color:#627291"/>
		</radialGradient>
		<path style="fill-rule:evenodd;clip-rule:evenodd;fill:url(#SVGID_5_);" d="M81.75,45.4c-3.7-3.167-6.517-6.283-8.45-9.35
			c-3.9-6.2-3.117-10.767,2.351-13.7c2.633-1.434,6.649-2.05,12.05-1.85c6.767,0.233,12.666,2.017,17.7,5.35
			c6.733,4.467,12.183,10.15,16.35,17.05c3.967,6.6,6.2,13.367,6.7,20.3c0.434,5.966-0.134,8.783-1.7,8.45
			c-0.866-0.2-2.7-2.017-5.5-5.45c-2.9-3.567-6.2-6.9-9.9-10c-5-4.233-9.267-6.633-12.8-7.2c-5.467-0.867-9.1-1.483-10.899-1.85
			C84.316,46.483,82.35,45.9,81.75,45.4z"/>
		
			<use xlink:href="#flash0.ai_x2F_Layer_3_x2F__x3C_Path_x3E__x5F_0"  width="44.35" height="36.948" x="0" y="-36.975" transform="matrix(1 0 0 -1 80.7002 25.5498)" style="overflow:visible;opacity:0.5117;enable-background:new    ;"/>
	</g>
	
		<radialGradient id="SVGID_6_" cx="96.3057" cy="94.6299" r="34.4199" gradientTransform="matrix(0.9954 0.0955 0.0846 -1.3633 -13.8727 223.5121)" gradientUnits="userSpaceOnUse">
		<stop  offset="0" style="stop-color:#52ADA1"/>
		<stop  offset="0.2118" style="stop-color:#4DA39A"/>
		<stop  offset="0.5647" style="stop-color:#408987"/>
		<stop  offset="1" style="stop-color:#2C6169"/>
	</radialGradient>
	<path style="fill-rule:evenodd;clip-rule:evenodd;fill:url(#SVGID_6_);" d="M91.65,51.45c1.366,1.2,2.25,2.95,2.649,5.25
		c0.2,1.033,0.334,3.05,0.4,6.05c0.066,1.8,0.217,4.433,0.45,7.9c0.066,3-0.134,5.617-0.601,7.85c-0.2,0.867-0.5,1.833-0.899,2.9
		c-0.567,1.4-1.084,2.25-1.551,2.55c-1.066,0.733-1.816-0.15-2.25-2.65c-0.6-3.466-0.933-5.25-1-5.35
		c-0.433,1.5-0.983,3.833-1.649,7c-0.634,3.066-1.184,5.383-1.65,6.95c-1.399,4.734-2.833,5.8-4.3,3.2
		c-0.767-1.333-1.316-3.149-1.65-5.45c-0.133-0.8-0.333-2.7-0.6-5.7c-0.5-5.667-1.733-10.017-3.7-13.05
		c-2.433-3.733-3.9-6.75-4.4-9.05c-0.9-3.833,0.417-6.567,3.95-8.2c2.667-1.233,5.5-1.967,8.5-2.2
		C87.05,49.15,89.816,49.817,91.65,51.45z"/>
	<g>
		
			<radialGradient id="SVGID_7_" cx="-63.5645" cy="-84.5146" r="50.9119" gradientTransform="matrix(-0.9811 -0.1935 0.1512 -0.8294 -2.3808 13.0575)" gradientUnits="userSpaceOnUse">
			<stop  offset="0" style="stop-color:#38ADA6"/>
			<stop  offset="0.2549" style="stop-color:#3FA3A3"/>
			<stop  offset="0.6824" style="stop-color:#518A99"/>
			<stop  offset="1" style="stop-color:#627291"/>
		</radialGradient>
		<path style="fill-rule:evenodd;clip-rule:evenodd;fill:url(#SVGID_7_);" d="M39.65,68.15c0.867-4.667,1.6-7.816,2.2-9.45
			c1.4-3.9,3.45-6.4,6.15-7.5c2.033-0.8,4.883-0.767,8.55,0.1c3.534,0.867,6.934,2.267,10.2,4.2c3.433,2.067,5.833,4.267,7.2,6.6
			c1.533,2.633,1.434,5.033-0.3,7.2c-1.434,1.767-4.15,3.9-8.15,6.4c-4.367,2.733-6.983,4.517-7.85,5.35
			c-2.033,2.034-4.583,4.883-7.65,8.55c-3.6,4.3-6.1,7.2-7.5,8.7c-4.7,5.033-6.683,3.283-5.95-5.25
			C37.183,84.217,38.217,75.917,39.65,68.15z"/>
		
			<use xlink:href="#flash0.ai_x2F_Layer_3_x2F__x3C_Path_x3E__x5F_1"  width="32.613" height="49.868" y="-49.9" transform="matrix(1 0 0 -1 41.4502 40.6001)" style="overflow:visible;opacity:0.5117;enable-background:new    ;"/>
	</g>
	
		<radialGradient id="SVGID_8_" cx="-66.4028" cy="-90.9185" r="34.8569" gradientTransform="matrix(-0.9869 -0.1614 0.1696 -0.856 -2.2609 11.4086)" gradientUnits="userSpaceOnUse">
		<stop  offset="0" style="stop-color:#52ADA1"/>
		<stop  offset="0.2118" style="stop-color:#4DA39A"/>
		<stop  offset="0.5647" style="stop-color:#408987"/>
		<stop  offset="1" style="stop-color:#2C6169"/>
	</radialGradient>
	<path style="fill-rule:evenodd;clip-rule:evenodd;fill:url(#SVGID_8_);" d="M71.75,45.8c3.167,1.034,6,2.5,8.5,4.4
		c3.333,2.533,4.033,5.533,2.1,9c-1.033,1.867-2.85,4.033-5.449,6.5c-3,2.833-4.967,4.883-5.9,6.15c-0.4,0.566-1.067,1.5-2,2.8
		c-0.933,0.867-1.917,0.817-2.95-0.15c-1.133,1.2-2.733,3.133-4.8,5.8c-1.967,2.534-3.617,3.85-4.95,3.95
		c-1.6,0.167-2.65-1.417-3.15-4.75c-1-7.067-0.783-13.5,0.65-19.3c0.767-3.067,1.784-5.833,3.05-8.3c1.667-3.4,3.517-5.55,5.55-6.45
		C64.767,44.383,67.883,44.5,71.75,45.8z"/>
	
		<use xlink:href="#flash0.ai_x2F_Layer_3_x2F__x3C_Path_x3E__x5F_9"  width="27.548" height="38.075" x="0.017" y="-38.05" transform="matrix(1 0 0 -1 57.6001 36.7002)" style="overflow:visible;opacity:0.5117;enable-background:new    ;"/>
	
		<use xlink:href="#flash0.ai_x2F_Layer_3_x2F__x3C_Path_x3E__x5F_8"  width="56.601" height="14.46" x="0.049" y="-14.456" transform="matrix(1 0 0 -1 30.1001 167.6504)" style="overflow:visible;opacity:0.4688;enable-background:new    ;"/>
	
		<linearGradient id="SVGID_9_" gradientUnits="userSpaceOnUse" x1="-27.7539" y1="-110.7178" x2="130.2142" y2="-110.7178" gradientTransform="matrix(-0.5172 0.8559 -0.8559 -0.5172 -5.828142e-004 -1.869202e-004)">
		<stop  offset="0" style="stop-color:#242224"/>
		<stop  offset="0.2118" style="stop-color:#27252E"/>
		<stop  offset="0.5765" style="stop-color:#302E49"/>
		<stop  offset="0.6353" style="stop-color:#32304E"/>
		<stop  offset="1" style="stop-color:#617D84"/>
	</linearGradient>
	<path style="fill-rule:evenodd;clip-rule:evenodd;fill:url(#SVGID_9_);" d="M40.9,49.3h2.75l0.65,4.3
		c0.767,3.467,2.067,6.733,3.9,9.8c1.5,2.467,3.983,6.383,7.45,11.75c2.667,4.833,3.85,9.15,3.55,12.95l-0.15,1.85
		c2.7-4.434,4.517-8.133,5.45-11.1c1-3.133,1.65-5.717,1.95-7.75c0.3-2.167,0.35-4.817,0.15-7.95c-0.167-2.5-0.7-5.316-1.6-8.45
		c-0.033-0.1-0.483-1.2-1.35-3.3c-0.767-1.9-1.117-2.883-1.05-2.95c0.933-0.767,1.717-1,2.35-0.7c0.433,0.2,1.033,0.9,1.8,2.1
		c1.7,2.633,2.967,5.9,3.8,9.8c0.767,3.5,1.117,7.1,1.05,10.8c3.733-4.633,6.1-9.717,7.1-15.25c0.3-1.733,0.45-3.417,0.45-5.05
		l-0.101-1.9L80.9,47.9l0.399,2.9c0.101,2.7-0.316,5.95-1.25,9.75c-0.767,3.167-2.233,6.567-4.399,10.2
		c-1.233,2.067-2.9,4.517-5,7.35c-0.5,2.233-1.283,4.983-2.35,8.25c-0.267,0.833-2.3,6.167-6.1,16c-2.5,6.5-3.967,11.983-4.4,16.45
		c-0.466,5.101-0.017,10.384,1.35,15.851c0.233-2.634,0.917-5.301,2.05-8c0.333-0.767,1.2-2.384,2.6-4.851
		c1.034-1.899,1.7-3.483,2-4.75c0.133-0.8,0.217-1.283,0.25-1.45c0.067-0.3,0.15-0.199,0.25,0.301v2.149
		c-0.233,1.934-0.85,4.134-1.85,6.601c-1.133,2.733-1.833,6.033-2.1,9.899c-0.267,4.367,0.066,8.95,1,13.75l1.1,3.45
		c0.933,2.934,1.75,6.017,2.45,9.25c0.233,1.134,0.583,2.816,1.05,5.05c0,0.066,0.117,0.834,0.35,2.3
		c0.133,0.934,0.317,1.667,0.55,2.2c0.6,1.467,1.8,2.483,3.6,3.05c1.033,0.334,2.649,0.7,4.85,1.101
		c0.467,0.133,1.184,0.316,2.15,0.55c0.866,0.267,1.55,0.566,2.05,0.9v0.149c-2.8-0.033-4.8-0.083-6-0.149
		c-1.5-0.067-2.667-0.101-3.5-0.101c-1.467-0.033-2.283,0.066-2.45,0.3c-0.133,0.134,0.217,0.301,1.05,0.5
		c1.3,0.334,0.75,0.601-1.65,0.801c-2.3,0.199-4.1,0.216-5.4,0.05c-1.767-0.167-2.716-0.367-2.85-0.601
		c0.533,0.834,1.95,1.483,4.25,1.95c1.833,0.367,2.583,0.684,2.25,0.95c-2.034,0.2-4.483,0.066-7.35-0.4
		c-3.033-0.666-5.3-1.166-6.8-1.5c-2.667-0.533-4.966-0.683-6.9-0.449c-1.066,0.133-2.483,0.416-4.25,0.85
		c-1.8,0.434-3.117,0.717-3.95,0.85c-1.8,0.301-3.25,0.417-4.35,0.351c-0.4-0.3,0.783-0.95,3.55-1.95
		c3.633-1.267,6.067-2.316,7.3-3.15c-0.567-0.033-3.45,0.534-8.65,1.7c-0.367-0.1,0.1-0.467,1.4-1.1
		c0.966-0.467,2.05-0.934,3.25-1.4c1-0.399,1.983-0.934,2.95-1.6c1.167-0.8,1.983-1.584,2.45-2.351
		c1.267-2.033,1.867-4.883,1.8-8.55c-0.033-0.866-0.267-3.333-0.7-7.399c-0.167-1.767-0.567-4.4-1.2-7.9
		c-0.8-4.634-1.25-7.316-1.35-8.05c-0.967-6.3-0.95-12.316,0.05-18.05c0.6-7.4,2.233-14.367,4.9-20.9
		c2.2-5.366,3.417-9.483,3.65-12.35c0.267-3.7-0.683-7.733-2.85-12.1c-2.933-5.966-5.066-10.65-6.4-14.05
		C41.817,55.567,40.867,51.833,40.9,49.3z"/>
	
		<radialGradient id="SVGID_10_" cx="59.623" cy="-11.0376" r="31.4664" gradientTransform="matrix(0.9689 0.2475 0.2288 -0.8461 5.4069 -19.9949)" gradientUnits="userSpaceOnUse">
		<stop  offset="0" style="stop-color:#38ADA6"/>
		<stop  offset="0.2235" style="stop-color:#38A3A2"/>
		<stop  offset="0.5961" style="stop-color:#3A8999"/>
		<stop  offset="1" style="stop-color:#3B668C"/>
	</radialGradient>
	<path style="fill-rule:evenodd;clip-rule:evenodd;fill:url(#SVGID_10_);" d="M72.75,8.1c4.2,4.667,6.366,9.65,6.5,14.95
		c0.066,2.633-0.283,4.8-1.05,6.5c-0.467,0.867-2.816,0.65-7.05-0.65c-4.4-1.367-7.55-3.05-9.45-5.05
		c-2.067-2.1-3.65-4.85-4.75-8.25c-1.2-3.633-2.034-5.75-2.5-6.35c-1.633-2.167-3.467-3.567-5.5-4.2c-1.367-0.433-2-0.9-1.9-1.4
		c0.233-1.1,1.233-2,3-2.7c1.8-0.733,3.934-1.034,6.4-0.9C62.75,0.383,68.183,3.067,72.75,8.1z"/>
	
		<radialGradient id="SVGID_11_" cx="-109.2651" cy="-1.9063" r="38.0712" gradientTransform="matrix(-0.9965 -0.0837 0.0571 -0.8258 -0.0227 0.3287)" gradientUnits="userSpaceOnUse">
		<stop  offset="0" style="stop-color:#5BB6AD"/>
		<stop  offset="0.2314" style="stop-color:#53ACA9"/>
		<stop  offset="0.6157" style="stop-color:#3F929E"/>
		<stop  offset="1" style="stop-color:#267291"/>
	</radialGradient>
	<path style="fill-rule:evenodd;clip-rule:evenodd;fill:url(#SVGID_11_);" d="M90.45,31.15c-2.834,1.333-6.9,1.9-12.2,1.7
		c-5.1-0.2-7.733-0.833-7.9-1.9c-0.2-2.034,0.217-4.383,1.25-7.05c2.133-5.333,6.35-9.633,12.65-12.9
		C91.116,7.467,98.033,6.667,105,8.6c2.767,0.767,5,1.85,6.7,3.25c1.633,1.333,2.366,2.617,2.2,3.85
		c-0.067,0.5-0.317,0.783-0.75,0.85L111.3,16.5c-2.434-0.1-4.95,0.65-7.55,2.25c-0.733,0.433-2.417,2.317-5.05,5.65
		C96.233,27.467,93.483,29.717,90.45,31.15z"/>
	
		<radialGradient id="SVGID_12_" cx="71.1011" cy="115.7158" r="116.4309" gradientTransform="matrix(0.9992 0.04 0.0392 -0.7081 -10.929 197.4958)" gradientUnits="userSpaceOnUse">
		<stop  offset="0.0118" style="stop-color:#2BB8A6"/>
		<stop  offset="0.2078" style="stop-color:#2DAEA3"/>
		<stop  offset="0.5412" style="stop-color:#32949B"/>
		<stop  offset="0.9608" style="stop-color:#3A6A8D"/>
		<stop  offset="1" style="stop-color:#3B668C"/>
	</radialGradient>
	<path style="fill-rule:evenodd;clip-rule:evenodd;fill:url(#SVGID_12_);" d="M65.4,105.3c-1-0.566-1.6-0.916-1.8-1.05
		c-0.833-0.6-1.233-1.15-1.2-1.65c0.1-1.399,1.533-2.166,4.3-2.3c2.167-0.1,3.966,0.084,5.4,0.55c4.766,1.534,8.766,4.284,12,8.25
		c1.601,1.9,2.767,3.884,3.5,5.95c0.767,2.167,0.95,4.134,0.551,5.9c-0.134,0.633-0.717,0.233-1.75-1.2
		c-0.834-1.233-1.167-0.967-1,0.8c0.199,2.334-0.117,4.417-0.95,6.25c-0.8,1.7-1.7,2.566-2.7,2.601
		c-0.7,0.033-1.483-0.834-2.35-2.601c-1.067-2.2-1.851-3.55-2.351-4.05c-1.3-1.3-2.2-2.017-2.7-2.15
		c-0.933-0.267-1.649,0.467-2.149,2.2c-0.5,1.7-1.434,2.316-2.8,1.851c-0.867-0.301-1.967-1.084-3.3-2.351
		c-1.4-1.333-2.233-2.1-2.5-2.3c-0.934-0.8-1.817-1.366-2.65-1.7c-0.9-0.366-1.85-0.55-2.85-0.55c-2.2-0.066-3.75-0.45-4.65-1.15
		c-1.133-0.899-1.083-2.283,0.15-4.149c1.367-2.066,3.066-3.717,5.1-4.95C60.767,106.2,63,105.467,65.4,105.3z"/>
	
		<use xlink:href="#flash0.ai_x2F_Layer_3_x2F__x3C_Path_x3E__x5F_3"  width="22.234" height="18.428" x="0.004" y="-18.439" transform="matrix(1 0 0 -1 61.4502 102.4502)" style="overflow:visible;opacity:0.5117;enable-background:new    ;"/>
	
		<use xlink:href="#flash0.ai_x2F_Layer_3_x2F__x3C_Path_x3E__x5F_2"  width="36.578" height="22.795" x="0.022" y="-22.794" transform="matrix(1 0 0 -1 74 9.75)" style="overflow:visible;opacity:0.5117;enable-background:new    ;"/>
	<g>
		
			<radialGradient id="SVGID_13_" cx="-30.2778" cy="-2.7603" r="44.1929" gradientTransform="matrix(-0.7405 -0.6721 0.5671 -0.831 -0.0058 0.008)" gradientUnits="userSpaceOnUse">
			<stop  offset="0" style="stop-color:#38ADA6"/>
			<stop  offset="0.2235" style="stop-color:#38A3A2"/>
			<stop  offset="0.5961" style="stop-color:#3A8999"/>
			<stop  offset="1" style="stop-color:#3B668C"/>
		</radialGradient>
		<path style="fill-rule:evenodd;clip-rule:evenodd;fill:url(#SVGID_13_);" d="M64.5,38.25c-5.533,3.4-8.383,5.15-8.55,5.25
			c-3,1.567-6.167,2.517-9.5,2.85c-2.4,0.233-5.55,1.25-9.45,3.05c-4.233,1.9-7.35,3.033-9.35,3.4c-1.533,0.3-2.733,0.434-3.6,0.4
			c-1.633-0.034-2.583-0.583-2.85-1.65C21,50.717,21.6,49.5,23,47.9c1.733-2,2.683-3.183,2.85-3.55c-6.1,1.867-11.3,3.283-15.6,4.25
			c-8.233,1.833-11.517,0.65-9.85-3.55c1.533-3.833,4.667-7.417,9.4-10.75c2.7-1.767,4.717-3.1,6.05-4c2.4-1.566,4.3-2.983,5.7-4.25
			c-1.267,0.267-2.2,0.467-2.8,0.6c-1.133,0.2-2.067,0.167-2.8-0.1c-1.667-0.8,0.267-3.017,5.8-6.65c4.867-3.167,9-5.4,12.4-6.7
			c5.233-2,10.684-2.8,16.35-2.4c6.3,0.434,10.35,2.383,12.15,5.85c0.867,1.733,2.85,3.7,5.95,5.9c2.4,1.733,3.733,4.133,4,7.2
			c0.066,0.733-0.967,2.167-3.1,4.3C67.533,36.017,65.867,37.417,64.5,38.25z"/>
		
			<use xlink:href="#flash0.ai_x2F_Layer_3_x2F__x3C_Path_x3E__x5F_4"  width="49.332" height="30.314" x="0.05" y="-30.3" transform="matrix(1 0 0 -1 5.6001 13.0498)" style="overflow:visible;opacity:0.5117;enable-background:new    ;"/>
	</g>
	
		<radialGradient id="SVGID_14_" cx="-79.0044" cy="32.0449" r="45.1214" gradientTransform="matrix(-0.9804 -0.197 0.1756 -0.9472 0.2149 -1.1597)" gradientUnits="userSpaceOnUse">
		<stop  offset="0" style="stop-color:#38ADA6"/>
		<stop  offset="0.2235" style="stop-color:#38A3A2"/>
		<stop  offset="0.5961" style="stop-color:#3A8999"/>
		<stop  offset="1" style="stop-color:#3B668C"/>
	</radialGradient>
	<path style="fill-rule:evenodd;clip-rule:evenodd;fill:url(#SVGID_14_);" d="M86.55,18.35c3-0.267,4.65,1.2,4.95,4.4
		c-0.1,0.833-1.233,1.367-3.4,1.6c-2.366,0.233-3.783,0.816-4.25,1.75c0.5,0.333,2.334,0.3,5.5-0.1
		c2.834,0.133,4.017,1.667,3.551,4.6c-0.134,0.767-2.351,1.517-6.65,2.25c-2.333,0.4-4.85,0.733-7.55,1
		c-0.601,0.066-1.7,0.233-3.3,0.5c-1.4,0.233-2.45,0.367-3.15,0.4c-1.333,0-2.283-0.317-2.85-0.95c-0.733-0.733-1-2.017-0.8-3.85
		c0.033-0.333,0.35-1.383,0.95-3.15c0.5-1.4,0.65-2.45,0.45-3.15c-0.2-0.733-1.067-1.767-2.6-3.1c-1.3-1.133-1.9-2.367-1.8-3.7
		c0.1-1.434,0.85-2.517,2.25-3.25c1.433-0.8,2.617-0.65,3.55,0.45c0.2,0.233,0.517,0.867,0.95,1.9c0.467,0.867,0.95,1.216,1.45,1.05
		c0.867-0.3,0.867-2.367,0-6.2c-0.366-1.3-0.616-2.3-0.75-3c-0.2-1.267-0.05-2.267,0.45-3c0.5-0.7,1.134-1.083,1.9-1.15
		C76.167,3.583,76.9,3.8,77.6,4.3c2.267,1.667,3.284,4.3,3.051,7.9c-0.134,2-0.45,4.966-0.95,8.9
		C81.967,19.433,84.25,18.517,86.55,18.35z"/>
	
		<radialGradient id="SVGID_15_" cx="38.5503" cy="-14.7402" r="36.1686" gradientTransform="matrix(0.4821 0.8761 0.8412 -0.4476 25.4135 -13.521)" gradientUnits="userSpaceOnUse">
		<stop  offset="0" style="stop-color:#38ADA6"/>
		<stop  offset="0.2235" style="stop-color:#38A3A2"/>
		<stop  offset="0.5961" style="stop-color:#3A8999"/>
		<stop  offset="1" style="stop-color:#3B668C"/>
	</radialGradient>
	<path style="fill-rule:evenodd;clip-rule:evenodd;fill:url(#SVGID_15_);" d="M45,19.75c2.367-0.5,4.567-0.8,6.6-0.9
		c3.667-0.167,6.883,0.35,9.65,1.55c6.9,2.967,10.817,6.317,11.75,10.05c0.566,2.233-0.283,4.167-2.55,5.8
		c-1.267,0.9-3.333,1.85-6.2,2.85c-2.067,0.767-4.4,0.867-7,0.3c-2.333-0.533-4.567-1.533-6.7-3c-0.733-0.467-1.566-1.217-2.5-2.25
		c-1.2-1.333-1.966-2.15-2.3-2.45c-1.267-1.133-2.933-1.817-5-2.05c-1.233-0.1-3.117-0.033-5.65,0.2
		c-2.434,0.233-3.783,0.35-4.05,0.35c-1.566-0.1-2.066-0.7-1.5-1.8c1.067-2.133,3.333-4.033,6.8-5.7
		C38.983,21.4,41.867,20.417,45,19.75z"/>
	<g>
		
			<radialGradient id="SVGID_16_" cx="-128.6733" cy="-18.8145" r="78.807" gradientTransform="matrix(-0.981 -0.1938 0.1596 -0.873 -0.3807 2.084)" gradientUnits="userSpaceOnUse">
			<stop  offset="0" style="stop-color:#38ADA6"/>
			<stop  offset="0.2235" style="stop-color:#38A3A2"/>
			<stop  offset="0.5961" style="stop-color:#3A8999"/>
			<stop  offset="1" style="stop-color:#3B668C"/>
		</radialGradient>
		<path style="fill-rule:evenodd;clip-rule:evenodd;fill:url(#SVGID_16_);" d="M91.85,30.45c6.2,1.966,11.317,6.433,15.351,13.4
			c7.467,12.767,9.566,28.05,6.3,45.85c-1.167,6.467-2.083,10.583-2.75,12.35c-1.033,2.867-2.267,3.45-3.7,1.75
			c-0.767-0.866-2-4.35-3.7-10.45c-1.966-6.866-4.616-13.066-7.949-18.6c-2.534-4.267-5.65-8.45-9.351-12.55
			c-3.8-3.967-6.316-6.6-7.55-7.9c-3.634-3.333-6.4-5.933-8.3-7.8c-3.467-3.367-4.983-5.717-4.55-7.05
			c0.533-1.667,1.883-3.317,4.05-4.95c2.267-1.7,5.066-3.067,8.399-4.1C82.7,29,87.283,29.017,91.85,30.45z"/>
		
			<use xlink:href="#flash0.ai_x2F_Layer_3_x2F__x3C_Path_x3E__x5F_5"  width="37.103" height="56.409" x="-0.01" y="-56.4" transform="matrix(1 0 0 -1 74.7998 33.7002)" style="overflow:visible;opacity:0.5117;enable-background:new    ;"/>
	</g>
	<g>
		<g>
			
				<radialGradient id="SVGID_17_" cx="29.02" cy="6.6313" r="112.4521" gradientTransform="matrix(0.9835 0.1807 0.1856 -0.9345 -2.5232 12.7015)" gradientUnits="userSpaceOnUse">
				<stop  offset="0" style="stop-color:#38ADA6"/>
				<stop  offset="0.2235" style="stop-color:#38A3A2"/>
				<stop  offset="0.5961" style="stop-color:#3A8999"/>
				<stop  offset="1" style="stop-color:#3B668C"/>
			</radialGradient>
			<path style="fill-rule:evenodd;clip-rule:evenodd;fill:url(#SVGID_17_);" d="M62.95,28.1c-0.067,0.367,1.517,0.05,4.75-0.95
				c3.966-0.667,7.5,0.017,10.6,2.05c3.2,2.1,4.75,5.333,4.65,9.7c-0.101,4.633-2.2,8.583-6.3,11.85
				c-3.534,2.8-6.267,4.817-8.2,6.05c-1.633,1.067-4.917,2.934-9.85,5.6c-3.9,2.133-9.2,6.267-15.9,12.4
				c-6.967,6.4-11.517,11.45-13.65,15.15c-2.4,4.2-4.583,5.583-6.55,4.149c-1.933-1.399-2.633-4.45-2.1-9.149
				c0.434-4.067,1.633-9.667,3.6-16.8c1.4-5,3.417-11.6,6.05-19.8c2.333-7.233,5.034-13.067,8.1-17.5
				c3.867-5.633,8.05-8.65,12.55-9.05c3.2-0.267,6.083,0.167,8.65,1.3C62.183,24.333,63.383,26,62.95,28.1z"/>
		</g>
		
			<use xlink:href="#flash0.ai_x2F_Layer_3_x2F__x3C_Path_x3E__x5F_6"  width="52.244" height="50.838" y="-50.85" transform="matrix(1 0 0 -1 24.1499 28.7998)" style="overflow:visible;opacity:0.5117;enable-background:new    ;"/>
	</g>
</g>
</svg>
