<?xml version="1.0" encoding="iso-8859-1"?>
<!-- Generator: Adobe Illustrator 15.1.0, SVG Export Plug-In . SVG Version: 6.00 Build 0)  -->
<!DOCTYPE svg PUBLIC "-//W3C//DTD SVG 1.1//EN" "http://www.w3.org/Graphics/SVG/1.1/DTD/svg11.dtd">
<svg version="1.1" id="Layer_3" xmlns="http://www.w3.org/2000/svg" xmlns:xlink="http://www.w3.org/1999/xlink" x="0px" y="0px"
	 width="160.05px" height="181.6px" viewBox="0 0 160.05 181.6" style="enable-background:new 0 0 160.05 181.6;"
	 xml:space="preserve">
<symbol  id="flash0.ai_x5F_1_x2F_Layer_3_x2F__x3C_Path_x3E__x5F_37" viewBox="0 -12.9 66.35 12.9">
	<g id="Layer_1_2_">
		<path style="fill-rule:evenodd;clip-rule:evenodd;fill:#0D5069;" d="M66.35-8.15c-0.633-0.767-1.467-1.417-2.5-1.95
			c-1.2-0.6-2.367-0.883-3.5-0.85c-0.967,0-2.2,0.25-3.7,0.75c-0.967,0.4-1.683,0.7-2.15,0.9c-0.833,0.333-1.583,0.533-2.25,0.6
			c-1.2,0.1-1.9,0.15-2.1,0.15c-0.9,0.033-1.566-0.083-2-0.35c-0.667-0.367-0.7-0.917-0.1-1.65c0.333-0.4,0.934-0.983,1.8-1.75
			c-1.733-0.067-3.1-0.15-4.1-0.25c-3.5-0.467-6.517-0.467-9.05,0c-1,0.233-1.75,0.383-2.25,0.45c-0.867,0.167-1.633,0.233-2.3,0.2
			c-0.367-0.033-1.633-0.267-3.8-0.7c-1.6-0.3-2.867-0.35-3.8-0.15c0.6,0.3,1.017,0.583,1.25,0.85c0.333,0.4,0.534,0.633,0.6,0.7
			c-1.033-0.566-2.483-0.783-4.35-0.65c-0.533,0.033-2.033,0.25-4.5,0.65c-1.133,0.167-2.35,0.217-3.65,0.15
			c-0.667-0.067-1.883-0.217-3.65-0.45c1.4,1.6,2.117,2.417,2.15,2.45c0.567,0.533,1.5,1.15,2.8,1.85
			c-0.3,0.1-0.717,0.117-1.25,0.05c-0.8-0.067-1.233-0.1-1.3-0.1c-3.533,0-6.167,0.417-7.9,1.25C3.117-5.3,1.533-5.017,0-5.15
			C0.767-4.583,2.083-4.233,3.95-4.1C4.083-4.1,4.767-4.117,6-4.15C6.833-4.183,7.5-4.133,8-4c0.567,0.133,1.35,0.483,2.35,1.05
			c1,0.567,1.783,0.917,2.35,1.05c0.566,0.133,1.367,0.1,2.4-0.1c1.033-0.167,1.816-0.217,2.35-0.15c0.6,0.066,1.316,0.233,2.15,0.5
			c0.5,0.167,1.217,0.4,2.15,0.7C23.95-0.317,27.433,0,32.2,0c3.333,0,8.333-0.067,15-0.2c2.4,0,5.083-0.2,8.05-0.6
			c0.833-0.133,2.067-0.417,3.7-0.85c1.433-0.333,2.667-0.267,3.7,0.2c-1.133-1.066-2.667-1.85-4.6-2.35
			c-1.433-0.167-2.383-0.333-2.85-0.5c0.133-0.267,0.433-0.483,0.9-0.65c0.667-0.233,1.033-0.367,1.1-0.4
			c0.1-0.066,0.8-0.566,2.1-1.5c0.8-0.566,1.55-0.967,2.25-1.2C63.183-8.517,64.783-8.55,66.35-8.15z"/>
	</g>
</symbol>
<g>
	
		<use xlink:href="#flash0.ai_x5F_1_x2F_Layer_3_x2F__x3C_Path_x3E__x5F_37"  width="66.35" height="12.9" y="-12.9" transform="matrix(1 0 0 -1 52.5498 168.7002)" style="overflow:visible;opacity:0.4688;enable-background:new    ;"/>
	
		<radialGradient id="SVGID_1_" cx="76.895" cy="22.1152" r="105.9314" gradientTransform="matrix(0.9999 0.0109 0.0051 -0.4709 -0.3539 32.5289)" gradientUnits="userSpaceOnUse">
		<stop  offset="0" style="stop-color:#2A1624"/>
		<stop  offset="1" style="stop-color:#18B0B5"/>
	</radialGradient>
	<path style="fill-rule:evenodd;clip-rule:evenodd;fill:url(#SVGID_1_);" d="M124.5,28.15c3.5-0.1,6.45,0.233,8.85,1
		c2.9,0.934,5.2,2.6,6.9,5c2.333,3.267,5.616,6.717,9.85,10.35c1.101,0.933,2.95,2.367,5.551,4.3c2.233,1.833,3.666,3.633,4.3,5.4
		c-0.5,0.833-2.05,0.883-4.65,0.15c-2.666-0.733-4.066-1.033-4.2-0.9c-0.267,0.267-0.35,0.617-0.25,1.05
		c0.134,0.667,0.117,1.35-0.05,2.05c-0.267,1.034-0.666,1.667-1.2,1.9c-0.466,0.2-1.416,0.267-2.85,0.2
		c-2.267-0.433-4.033-0.733-5.3-0.9c-2.3-0.3-3.9,0.083-4.8,1.15c-0.534,0.633-0.983,2.267-1.351,4.9c-0.233,1.5-1.6,2.217-4.1,2.15
		c-2.233-0.1-4.533-0.567-6.9-1.4c-1.366-0.533-3.517-1.517-6.45-2.95c-2.133-1.033-3.899-1.417-5.3-1.15
		c-0.899,0.167-2.517,0.917-4.85,2.25c-0.634,0.367-1.4,0.7-2.3,1c-1.067,0.4-1.9,0.583-2.5,0.55c-0.9-0.033-1.601-0.483-2.101-1.35
		c-0.45-0.803-0.434-1.237,0.05-1.3c-0.816,0.092-1.6,0.692-2.35,1.8c-0.934,1.4-1.6,2.233-2,2.5c-1.566,0.967-3.55,1.2-5.95,0.7
		c-1.934-0.434-3.833-1.217-5.7-2.35c-1.666-1.3-3.066-2.317-4.199-3.05c-2.101-1.367-3.617-1.733-4.55-1.1
		c-0.367,0.233-0.75,0.917-1.15,2.05c-0.3,0.9-1.017,1.383-2.15,1.45c-0.9,0.033-2.05-0.35-3.45-1.15
		c-1.533-0.967-2.617-1.617-3.25-1.95c-1.3-0.733-2.317-1.283-3.05-1.65C61.683,58.183,60.6,57.9,59.8,58
		c-1.3,0.133-3.133,0.933-5.5,2.4c-2.533,1.733-4.283,2.867-5.25,3.4c-0.833,0.5-2.167,1.284-4,2.35c-1.6,0.867-3.033,1.4-4.3,1.6
		c-1.9,0.233-3.25-0.2-4.05-1.3c-0.8-1.633-1.583-2.934-2.35-3.9c-0.9-1.167-2.434-1.617-4.6-1.35c-0.067,0-1.75,0.4-5.05,1.2
		c-2.767,0.667-4.233,1.017-4.4,1.05c-1.867,0.233-3.283-0.067-4.25-0.9c-1.066-0.9-1.466-2.5-1.2-4.8
		c0.333-2.5,0.283-4.05-0.15-4.65c-0.434-0.667-2.4-0.367-5.9,0.9c-3.733,1.333-6.066,1.717-7,1.15c0.333-1.066,0.5-1.95,0.5-2.65
		c0-0.667-0.183-1.567-0.55-2.7c-0.167-0.566,0.35-1.033,1.55-1.4c1.3-0.433,1.967-0.9,2-1.4c0.067-0.8-0.483-1.383-1.65-1.75
		c-1.566-0.5-2.483-0.9-2.75-1.2c-0.633-0.733,0.1-2.133,2.2-4.2c1.9-1.867,3.566-3.133,5-3.8c1.833-0.867,4.316-1.683,7.45-2.45
		c4.067-1.033,6.6-1.717,7.6-2.05C32.717,28.417,42,26.167,51,24.8c2.433-0.367,4.567-0.6,6.4-0.7c4.2-0.2,9.083,0.133,14.65,1
		c2.534,0.4,7.034,1.583,13.5,3.55c5.667,1.733,10.2,2.684,13.601,2.85c3.1,0.167,7.333-0.3,12.699-1.4
		C117.717,28.867,121.934,28.217,124.5,28.15z"/>
	
		<linearGradient id="SVGID_2_" gradientUnits="userSpaceOnUse" x1="112.8936" y1="-106.4238" x2="165.7936" y2="-106.4238" gradientTransform="matrix(-0.0435 0.9991 -1.0002 -0.0171 5.297065e-004 7.605739e-005)">
		<stop  offset="0" style="stop-color:#3A3866"/>
		<stop  offset="0.3608" style="stop-color:#302E49"/>
		<stop  offset="0.7608" style="stop-color:#27252E"/>
		<stop  offset="1" style="stop-color:#242224"/>
	</linearGradient>
	<path style="fill-rule:evenodd;clip-rule:evenodd;fill:url(#SVGID_2_);" d="M118.85,41.5c1.167,7.3,1.851,12.783,2.051,16.45
		c0.3,6.167-0.267,11.767-1.7,16.8c-0.934,3.333-1.483,6.55-1.65,9.65c-0.1,2-0.166,5.767-0.2,11.3
		c-0.199,8.333-0.716,15.75-1.55,22.25c-1,7.8-2.533,15.1-4.6,21.899c-1.5,5.101-3.617,10.517-6.351,16.25
		c-0.566,1.233-1.649,3.467-3.25,6.7c-1.333,2.9-2.05,5.033-2.149,6.4c-0.967-0.967-2.467-3.851-4.5-8.65
		c-2.066-4.934-3.65-8.033-4.75-9.3c-2.601-2.934-4.101-4.667-4.5-5.2c-1.566-2.267-2.3-4.416-2.2-6.45
		c0.066-1,0.033-1.883-0.1-2.649c-0.034,0,0.267-0.584,0.899-1.75c1.601-3,4.101-6.167,7.5-9.5c4.267-4.2,6.834-6.851,7.7-7.95
		c2-2.6,3.45-4.85,4.35-6.75c0.733-1.967,1.301-3.483,1.7-4.55c0.7-1.834,1.217-3.45,1.55-4.851c0.767-3.033,1.184-4.649,1.25-4.85
		c0.733-2.733,1.45-7.033,2.15-12.9c0.6-5,0.45-9.117-0.45-12.35c-0.733-2.6-1.116-5.15-1.149-7.65
		c-0.034-1.467,0.083-4.017,0.35-7.65c0.3-4.2,0.483-6.867,0.55-8c0.134-1.667,0.267-2.4,0.4-2.2c1,1.733,1.35,5.35,1.05,10.85
		c-0.3,5.9,0.134,10.267,1.3,13.1c0.733,1.767,1.434,2.283,2.101,1.55c0.566-0.6,1.066-1.967,1.5-4.1c0.433-1.967,0.699-4.3,0.8-7
		c0.133-3.1,0.017-5.967-0.351-8.6c-0.133-0.833-0.1-2,0.101-3.5c0.2-1.733,0.283-2.917,0.25-3.55c-0.3-1.533-0.417-2.467-0.351-2.8
		C116.667,41.583,117.417,41.433,118.85,41.5z"/>
	<linearGradient id="SVGID_3_" gradientUnits="userSpaceOnUse" x1="77.854" y1="186.5313" x2="76.329" y2="96.4563">
		<stop  offset="0" style="stop-color:#242224"/>
		<stop  offset="0.2392" style="stop-color:#27252E"/>
		<stop  offset="0.6392" style="stop-color:#302E49"/>
		<stop  offset="1" style="stop-color:#3A3866"/>
	</linearGradient>
	<path style="fill-rule:evenodd;clip-rule:evenodd;fill:url(#SVGID_3_);" d="M85,97.75c0.434-2.8,0.717-4.866,0.85-6.2
		c0.301-2.267,0.434-4.333,0.4-6.2c0.8,0.8,1.233,3.183,1.3,7.15c0.066,3.767-0.2,7.583-0.8,11.45c-0.366,2.399-1.033,5.899-2,10.5
		c-1.167,5.399-1.9,8.899-2.2,10.5c-0.434,2.3-0.217,4.25,0.65,5.85c0.267,0.467,1.533,2.05,3.8,4.75
		c5.366,6.4,9.033,12.45,11,18.15c1.733,4.833,2.134,9.366,1.2,13.6c0.633,0.3,1.533,0.334,2.7,0.101
		c1.267-0.301,2.449-0.284,3.55,0.05c0.2,0.066,1.233,0.6,3.1,1.6c1.167,0.634,2.167,0.834,3,0.601
		c-0.467,0.633-1.616,0.816-3.45,0.55c-2.3-0.334-3.666-0.467-4.1-0.4c-0.7,0.134-1.5,0.467-2.4,1
		c-0.833,0.467-1.533,0.983-2.1,1.55c0.467,0.101,1.833,0.101,4.1,0c1.834-0.066,3.334,0.167,4.5,0.7
		c1.233,0.566,2.584,1.467,4.051,2.7c1.3,0.866,2.883,1.083,4.75,0.65c-1.467,1.133-3.4,1.267-5.801,0.399
		c-3.399-1.2-5.316-1.816-5.75-1.85c-1.5-0.066-3.633,0.116-6.399,0.55c-2.7,0.434-4.767,0.6-6.2,0.5c2.267,0.2,3.8,0.616,4.6,1.25
		c0.733,0.533,1.2,0.934,1.4,1.2c0.2,0.3,0.3,0.783,0.3,1.45c-0.733-1.134-2.217-1.617-4.45-1.45c-4.267,0.267-6.716,0.366-7.35,0.3
		c-1.033-0.066-4.3-0.434-9.8-1.1c-0.9-0.101-2.217-0.034-3.95,0.199c-0.1,0-1.733,0.267-4.9,0.801c1.533-1.101,2.733-1.934,3.6-2.5
		c1.566-1.034,2.95-1.4,4.15-1.101c-0.7-0.366-1.233-0.6-1.6-0.7c-0.2-0.066-0.867-0.199-2-0.399c-1.233-0.2-2.167-0.351-2.8-0.45
		c-1.1-0.167-2.184-0.25-3.25-0.25c-0.8,0-1.934,0.116-3.4,0.35c-1.667,0.267-2.783,0.417-3.35,0.45c-0.934,0.066-2-0.1-3.2-0.5
		c-1-0.366-1.817-0.434-2.45-0.2c0.434-0.3,1.133-0.483,2.1-0.55c0.5-0.033,1.233-0.066,2.2-0.1c0.867-0.066,1.8-0.45,2.8-1.15
		c1.133-0.8,2.067-1.283,2.8-1.45c1.633-0.433,3.033-0.6,4.2-0.5c1.233,0.101,2.017,0.117,2.35,0.051
		c0.667-0.134,0.983-0.617,0.95-1.45c-0.067-0.733-0.383-1.533-0.95-2.4c-0.467-0.733-1.3-1.883-2.5-3.45
		c-1.1-1.433-1.917-2.583-2.45-3.449c-2.8-4.567-5.233-9.884-7.3-15.95c-2.167-6.267-3.883-13.367-5.15-21.3
		c-0.867-5.601-1.7-13.101-2.5-22.5c-0.533-6.233-1.4-10.601-2.6-13.101c-0.067-0.133-1.65-2.75-4.75-7.85
		c-2.4-3.934-4.067-7.517-5-10.75c-1.467-5.034-2.167-9.767-2.1-14.2c0.1-4.9,1.217-7.333,3.35-7.3c0.1,1.767,0.2,4.216,0.3,7.35
		c0.167,2.667,0.45,5.117,0.85,7.35c0.733,4.1,3,8.583,6.8,13.45c1.566,2.033,2.867,2.533,3.9,1.5c0.967-0.967,1.333-2.817,1.1-5.55
		c-0.6-6.433-0.833-11.483-0.7-15.15c0.133-3.633,0.4-6.717,0.8-9.25c1.1-0.433,2.1-0.533,3-0.3C55.267,53.017,55,56.9,55,57
		c0.033,4.833,1.1,7.883,3.2,9.15c0.867,0.4,1.433-1.867,1.7-6.8c0.167-5.934,0.283-9.867,0.35-11.8
		c0.667-0.133,1.417-0.183,2.25-0.15c0.967,0,1.667,0.133,2.1,0.4c-0.033,0.867-0.1,3.534-0.2,8c-0.033,3-0.2,5.717-0.5,8.15
		c-0.066,1.5-0.267,4.033-0.6,7.6c-0.367,3.7-0.583,6.2-0.65,7.5c-0.267,5.333-0.083,10,0.55,14c0.7,4.434,2.05,8.884,4.05,13.351
		c0.367,0.833,1.417,3.333,3.15,7.5c1.867,3.767,3.684,5.666,5.45,5.699c0.6,0,1.183-0.216,1.75-0.649
		c1.033-0.733,1.95-1.967,2.75-3.7c0.767-2.066,1.317-3.566,1.65-4.5C83.066,107.917,84.066,103.583,85,97.75z"/>
	
		<radialGradient id="SVGID_4_" cx="93.8457" cy="-5.5225" r="130.2828" gradientTransform="matrix(0.9999 0.0109 0.0066 -0.6016 0.0964 -8.8443)" gradientUnits="userSpaceOnUse">
		<stop  offset="0" style="stop-color:#2A1624"/>
		<stop  offset="1" style="stop-color:#006986"/>
	</radialGradient>
	<path style="fill-rule:evenodd;clip-rule:evenodd;fill:url(#SVGID_4_);" d="M155.2,46.95c2.1,1.933,3.5,3.55,4.2,4.85
		c1.133,2.167,0.833,3.067-0.9,2.7c-1.066-0.233-2.917-1.067-5.55-2.5c-2.101-1.2-3.384-1.85-3.851-1.95
		c-1.133-0.267-2.399,0.1-3.8,1.1c-1.166,1.133-2.033,1.95-2.6,2.45c-1.033,0.9-2.101,1.316-3.2,1.25
		c-1.033-0.067-2.217-0.567-3.55-1.5c-1.634-1.2-2.717-1.9-3.25-2.1c-0.101,0.633-0.101,2.067,0,4.3c0.1,1.867-0.033,3.233-0.4,4.1
		c-1,2.434-3.033,3.2-6.1,2.3c-1.934-0.534-4.184-1.7-6.75-3.5c-1.834-1.633-3.3-2.883-4.4-3.75c-2-1.667-3.616-2.383-4.85-2.15
		c-1.134,0.2-2.2,1.25-3.2,3.15c-1.033,1.966-2.083,3.1-3.15,3.4c-0.966,0.267-2.199,0-3.699-0.8c-1.567-0.833-2.75-1.2-3.551-1.1
		c-1.133,0.133-2.083,0.917-2.85,2.35c-0.967,1.733-1.733,2.784-2.3,3.15c-0.834,0.533-1.983,0.6-3.45,0.2
		c-0.767-0.2-1.9-0.667-3.4-1.4c-1.8-0.867-3.816-2.2-6.05-4c-3.066-2.467-4.95-3.933-5.65-4.4c-1.867-1.267-3.433-1.4-4.7-0.4
		c-2.367,1.867-3.7,2.85-4,2.95c-1.7,0.567-3.817,0.283-6.35-0.85c-2.2-1-4-1.35-5.4-1.05c-1.2,0.233-2.717,1.183-4.55,2.85
		c-4.133,3.7-7.816,5.117-11.05,4.25c-1.167-0.3-2.934-2.067-5.3-5.3c-1.966-2.7-4.133-3.733-6.5-3.1c-1.367,0.6-2.4,1.033-3.1,1.3
		c-1.3,0.433-2.1,0.2-2.4-0.7c-0.233-0.6,0.217-1.633,1.35-3.1c1.067-1.434,1.434-2.483,1.1-3.15c-0.567-1.066-2.6-0.533-6.1,1.6
		c-1.8,1.1-3.85,2.5-6.15,4.2c-2.533,1.667-4.883,2.583-7.05,2.75C0,55.55-0.667,54,0.7,50.7c0.233-0.567,0.966-2,2.2-4.3
		c0.733-1.367,0.934-2.083,0.6-2.15c-1.033-0.067-1.75-0.133-2.15-0.2c-0.7-0.167-0.917-0.6-0.65-1.3c0.2-0.467,1.333-1.867,3.4-4.2
		c2.033-2.367,3.417-3.85,4.15-4.45c0.333-0.267,0.95-0.684,1.85-1.25c0.467-0.267,1-0.767,1.6-1.5
		c1.533-1.733,3.716-3.45,6.55-5.15c1.567-0.934,3.967-2.333,7.2-4.2c1.267-0.8,3.45-2.417,6.55-4.85
		c2.733-2.133,4.983-3.7,6.75-4.7c6.833-3.867,13.5-5.534,20-5C64.317,7.883,70.467,10.067,77.2,14c1.7,1,4.717,3.5,9.05,7.5
		c5.566,5.133,8.8,8.083,9.7,8.85c2.566,2.133,4.75,3.367,6.55,3.7c1.634,0.3,3.417-0.083,5.35-1.15
		c3.101-1.7,5.884-2.917,8.351-3.65c3.1-0.933,6.133-1.233,9.1-0.9c4.2,0.5,8.65,2.267,13.351,5.3c2.433,1.6,6.283,4.6,11.55,9
		C152.7,44.75,154.366,46.183,155.2,46.95z"/>
	
		<radialGradient id="SVGID_5_" cx="105.2715" cy="-12.4438" r="132.1828" gradientTransform="matrix(0.9999 0.0109 0.0065 -0.6016 0.2167 -19.9297)" gradientUnits="userSpaceOnUse">
		<stop  offset="0" style="stop-color:#9EF0E3"/>
		<stop  offset="0.0431" style="stop-color:#93ECE3"/>
		<stop  offset="0.2157" style="stop-color:#6BDFE3"/>
		<stop  offset="0.302" style="stop-color:#5CDAE3"/>
		<stop  offset="0.4667" style="stop-color:#3EC7DD"/>
		<stop  offset="0.6902" style="stop-color:#1CB1D5"/>
		<stop  offset="0.8784" style="stop-color:#08A3D1"/>
		<stop  offset="1" style="stop-color:#009ECF"/>
	</radialGradient>
	<path style="fill-rule:evenodd;clip-rule:evenodd;fill:url(#SVGID_5_);" d="M129.35,45.9c-0.033,0.667,0.117,2.117,0.45,4.35
		c0.267,1.633,0.167,3.05-0.3,4.25c-1.333,3.233-3.967,4-7.9,2.3c-1.8-0.8-4.666-2.7-8.6-5.7c-1.467-1.267-2.7-2.233-3.7-2.9
		c-1.833-1.3-3.217-1.717-4.149-1.25c-0.967,0.5-1.5,2-1.601,4.5c-0.1,2.267-1,3.55-2.7,3.85c-1.833,0.3-3.699-0.566-5.6-2.6
		c-1.9-2.534-3.2-4.25-3.9-5.15C90.083,45.883,89.1,46.033,88.4,48c-0.4,1.033-0.75,2.917-1.051,5.65
		c-0.366,2.934-2.183,3.5-5.449,1.7c-2.5-1.367-4.934-3.417-7.3-6.15c-2.733-3.133-4.717-4.95-5.95-5.45
		c-2.133-0.9-3.833,0.467-5.1,4.1c-0.667,1.6-1.55,2.4-2.65,2.4c-1.033-0.033-1.8-0.75-2.3-2.15c-0.6-2.5-1.067-4.05-1.4-4.65
		c-0.534-0.934-1.717-0.934-3.55,0c-1.4,0.733-3.133,2.133-5.2,4.2c-2.133,2.133-4.2,3.767-6.2,4.9c-1.567,0.867-3.1,1.267-4.6,1.2
		c-1.733-0.1-3.167-0.817-4.3-2.15c-0.8-1-1.15-2.583-1.05-4.75c0.1-2.667,0.017-4.467-0.25-5.4c-0.5-1.8-2-2.367-4.5-1.7
		c-1.733,0.433-4.417,1.683-8.05,3.75c-4.633,2.6-7.517,4.15-8.65,4.65c-2.967,1.367-5.017,1.717-6.15,1.05
		c-1.267-0.733-1.067-2.233,0.6-4.5c2.067-2.833,3.1-4.567,3.1-5.2c0-0.267-0.917,0.167-2.75,1.3c-1.9,1.2-2.967,1.467-3.2,0.8
		c-0.333-0.967,0.7-2.667,3.1-5.1c3.2-3,5.517-5.3,6.95-6.9c3.4-4.4,6.5-8.117,9.3-11.15c5.2-5.633,10.733-10.1,16.6-13.4
		c6.833-3.833,13.483-5.483,19.95-4.95c5.633,0.433,11.783,2.617,18.45,6.55c1.733,1,4.767,3.5,9.101,7.5
		c5.666,5.2,8.899,8.133,9.699,8.8c2.534,2.133,4.717,3.367,6.551,3.7c1.633,0.333,3.399-0.033,5.3-1.1
		c3.767-2.1,6.816-3.433,9.149-4c5.167-1.267,10.367-0.783,15.601,1.45c3.6,1.5,6.866,3.983,9.8,7.45c1.733,2.033,4.267,5.3,7.6,9.8
		c1.9,2.267,4.334,4.867,7.301,7.8c1.633,1.833,1.666,2.867,0.1,3.1c-1.033,0.167-3.7-1.083-8-3.75
		c-3.634-2.233-5.483-2.733-5.55-1.5c0.166,1.9-0.25,3.4-1.25,4.5c-1.233,1.333-3.017,1.434-5.351,0.3
		c-1.466-0.7-3.233-2.133-5.3-4.3C130.283,45.1,129.55,44.933,129.35,45.9z"/>
	
		<radialGradient id="SVGID_6_" cx="81.8379" cy="81.4678" r="50.4155" gradientTransform="matrix(0.9999 0.0108 0.005 -0.4607 -1.2894 118.9931)" gradientUnits="userSpaceOnUse">
		<stop  offset="0" style="stop-color:#2A1624"/>
		<stop  offset="1" style="stop-color:#006986"/>
	</radialGradient>
	<path style="fill-rule:evenodd;clip-rule:evenodd;fill:url(#SVGID_6_);" d="M90.45,90.8c1.733,0.167,4.517,0.351,8.35,0.55
		c3.3,0.367,5.867,1.284,7.7,2.75c0.6,0.467,1.517,1.134,2.75,2c1.1,0.834,1.95,1.584,2.55,2.25c0.967,1.101,1.233,1.851,0.8,2.25
		c-0.399,0.334-1.116,0.367-2.149,0.101c-0.134-0.033-0.733-0.25-1.8-0.65c-0.534-0.233-0.817-0.217-0.851,0.05
		c0,0.067,0.05,0.434,0.15,1.101c-0.033,0.666-0.334,1.1-0.9,1.3c-0.2,0.033-1.166-0.517-2.899-1.65c-1.534-1-2.667-1.083-3.4-0.25
		c-0.2,0.233-0.366,0.767-0.5,1.601c-0.134,0.7-0.417,1.2-0.85,1.5c-1.034,0.7-2.167,0.783-3.4,0.25
		c-0.467-0.2-1.783-1.483-3.95-3.851c-1.566-1.733-3.116-2.283-4.649-1.649c-1.5,1.166-2.684,2.05-3.551,2.649
		c-1.633,1.134-2.933,1.217-3.899,0.25c-0.267-0.267-0.417-0.783-0.45-1.55c0-0.733-0.15-1.217-0.45-1.45
		C78.55,97.95,77.9,97.9,77.1,98.2c-0.833,0.5-1.434,0.8-1.8,0.899c-1.466,0.5-2.667,0.267-3.6-0.699
		c-0.767-1.233-1.284-2.034-1.55-2.4c-0.333-0.5-1.15-0.616-2.45-0.35c-1.5,0.366-2.517,0.583-3.05,0.649
		c-1.7,0.233-2.583-0.166-2.65-1.2c-0.033-1,0.717-1.933,2.25-2.8c0.233-0.1,0.75-0.217,1.55-0.35c0.833-0.134,1.3-0.233,1.4-0.3
		c2.867-1.267,6.7-1.851,11.5-1.75C80.366,89.933,84.283,90.233,90.45,90.8z"/>
	
		<radialGradient id="SVGID_7_" cx="102.9453" cy="82.6475" r="50.7905" gradientTransform="matrix(0.9999 0.0108 0.005 -0.4607 -1.2986 120.7195)" gradientUnits="userSpaceOnUse">
		<stop  offset="0" style="stop-color:#9EF0E3"/>
		<stop  offset="0.0431" style="stop-color:#93ECE3"/>
		<stop  offset="0.2157" style="stop-color:#6BDFE3"/>
		<stop  offset="0.302" style="stop-color:#5CDAE3"/>
		<stop  offset="0.4667" style="stop-color:#3EC7DD"/>
		<stop  offset="0.6902" style="stop-color:#1CB1D5"/>
		<stop  offset="0.8784" style="stop-color:#08A3D1"/>
		<stop  offset="1" style="stop-color:#009ECF"/>
	</radialGradient>
	<path style="fill-rule:evenodd;clip-rule:evenodd;fill:url(#SVGID_7_);" d="M83.65,79.15c3.699-1.267,7.3-0.7,10.8,1.7
		c1.133,0.8,2.35,1.883,3.649,3.25c0.733,0.8,1.817,2,3.25,3.6c0.4,0.433,2.967,2.966,7.7,7.6c1.101,1.033,1.733,1.667,1.9,1.9
		c0.733,0.8,0.967,1.383,0.7,1.75c-0.334,0.399-1.317,0.033-2.95-1.101c-2.5-1.699-3.884-2.616-4.15-2.75l-0.399,0.2
		c0.033,0.233,0.283,0.834,0.75,1.8c0.3,0.867,0.083,1.334-0.65,1.4c-0.267,0.1-0.967-0.5-2.1-1.8
		c-1.101-1.267-1.834-1.783-2.2-1.55c-0.334,0.199-0.45,0.883-0.351,2.05c0.101,1.2-0.033,1.983-0.399,2.35
		c-0.634,0.601-1.417,0.684-2.351,0.25c-0.366-0.2-1.066-0.733-2.1-1.6c-1.267-1.3-2.25-2.283-2.95-2.95
		c-1.3-1.167-2.5-1.717-3.6-1.65c-0.767,0.067-2.084,0.934-3.95,2.601c-1.566,1.399-2.934,1.8-4.1,1.2
		c-0.5-0.233-0.967-0.817-1.4-1.75c-0.4-0.801-0.883-1.25-1.45-1.351c-0.3-0.033-0.983,0.167-2.05,0.601
		c-0.8,0.366-1.483,0.216-2.05-0.45c-0.034-0.066-0.284-0.65-0.75-1.75c-0.167-0.467-0.684-0.601-1.55-0.4
		c-0.133,0.033-1.767,0.634-4.9,1.8c-2.167,0.801-3.533,1-4.1,0.601c-0.367-0.367,0.033-0.917,1.2-1.65
		c1.467-0.833,2.433-1.416,2.9-1.75c2.133-1.5,3.733-2.633,4.8-3.4c1.867-1.367,3.4-2.566,4.6-3.6
		C78.533,81.633,81.283,79.917,83.65,79.15z"/>
	<path style="fill-rule:evenodd;clip-rule:evenodd;fill:#9EF0E3;" d="M116.25,22.55c1.833-0.5,3.267-0.533,4.3-0.1
		c1,0.433,1.05,0.917,0.15,1.45c-1.134,0.667-2.384,1.267-3.75,1.8c-1.867,0.667-3.55,1-5.05,1c-1.567,0-1.617-0.6-0.15-1.8
		C113.15,23.767,114.65,22.983,116.25,22.55z"/>
	<path style="fill-rule:evenodd;clip-rule:evenodd;fill:#B1F3E9;" d="M127.3,24.9c-0.133-1.1,1.017-1.283,3.45-0.55
		c2.4,0.733,3.35,1.517,2.85,2.35c-0.466,0.767-1.616,0.833-3.449,0.2C128.316,26.3,127.366,25.633,127.3,24.9z"/>
	<path style="fill-rule:evenodd;clip-rule:evenodd;fill:#B1F3E9;" d="M122.65,22.45c0.466-0.7,1.399-0.7,2.8,0
		c1.434,0.7,1.517,1.083,0.25,1.15c-1,0.066-1.8-0.1-2.4-0.5L122.65,22.45z"/>
	<path style="fill-rule:evenodd;clip-rule:evenodd;fill:#9EF0E3;" d="M136.15,27.2l0.75,0.3c0.566,0.3,1.05,0.65,1.449,1.05
		c0.634,0.6,1.051,1.184,1.25,1.75c0.233,0.667-0.066,0.833-0.899,0.5c-0.9-0.333-1.717-1.017-2.45-2.05S135.483,27.2,136.15,27.2z"
		/>
	<path style="fill-rule:evenodd;clip-rule:evenodd;fill:#9EF0E3;" d="M143.7,35.95l0.45,0.25c0.366,0.2,0.666,0.433,0.899,0.7
		c0.367,0.4,0.601,0.767,0.7,1.1c0.1,0.4-0.116,0.483-0.65,0.25c-0.566-0.233-1.05-0.683-1.449-1.35
		C143.25,36.233,143.267,35.917,143.7,35.95z"/>
	<path style="fill-rule:evenodd;clip-rule:evenodd;fill:#9EF0E3;" d="M108.15,28.9c1.166-0.767,2.283-0.95,3.35-0.55
		c1.1,0.367,1.083,0.8-0.05,1.3c-1.134,0.5-2.217,0.684-3.25,0.55C107.134,30.067,107.116,29.633,108.15,28.9z"/>
	<path style="fill-rule:evenodd;clip-rule:evenodd;fill:#9EF0E3;" d="M123.65,30.25c-1.9,0-3.367-0.533-4.4-1.6
		c-1.033-1.1-0.85-1.883,0.55-2.35c1.533-0.533,3.134-0.65,4.8-0.35c1.5,0.267,2.567,0.767,3.2,1.5c0.566,0.667,0.4,1.3-0.5,1.9
		C126.4,29.95,125.184,30.25,123.65,30.25z"/>
	<path style="fill-rule:evenodd;clip-rule:evenodd;fill:#9EF0E3;" d="M47.55,28.85c0.133,0.533-0.066,0.883-0.6,1.05
		c-0.567,0.2-0.934,0.033-1.1-0.5c-0.167-0.533,0.033-0.883,0.6-1.05c0.233-0.067,0.45-0.05,0.65,0.05
		C47.333,28.467,47.483,28.617,47.55,28.85z"/>
	<path style="fill-rule:evenodd;clip-rule:evenodd;fill:#9EF0E3;" d="M50,33.45c0.1,0.333,0.067,0.65-0.1,0.95
		c-0.133,0.3-0.367,0.5-0.7,0.6c-0.333,0.133-0.667,0.117-1-0.05c-0.3-0.133-0.5-0.367-0.6-0.7s-0.067-0.633,0.1-0.9
		c0.133-0.3,0.367-0.517,0.7-0.65c0.333-0.1,0.667-0.067,1,0.1C49.7,32.933,49.9,33.15,50,33.45z"/>
	<path style="fill-rule:evenodd;clip-rule:evenodd;fill:#9EF0E3;" d="M45.05,37.25c0.1,0.3,0.083,0.583-0.05,0.85
		c-0.167,0.267-0.4,0.45-0.7,0.55c-0.733,0.167-1.2-0.066-1.4-0.7c-0.1-0.267-0.066-0.534,0.1-0.8c0.133-0.267,0.35-0.45,0.65-0.55
		c0.3-0.1,0.583-0.083,0.85,0.05S44.95,36.983,45.05,37.25z"/>
	<path style="fill-rule:evenodd;clip-rule:evenodd;fill:#9EF0E3;" d="M48.35,39.15c0.1,0.5-0.083,0.833-0.55,1
		c-0.533,0.167-0.883,0.017-1.05-0.45c-0.067-0.2-0.05-0.4,0.05-0.6c0.1-0.2,0.267-0.333,0.5-0.4
		C47.833,38.533,48.183,38.683,48.35,39.15z"/>
	<path style="fill-rule:evenodd;clip-rule:evenodd;fill:#9EF0E3;" d="M43.65,43.95c0.1,0.367,0.067,0.716-0.1,1.05
		c-0.167,0.333-0.433,0.567-0.8,0.7c-0.367,0.1-0.717,0.066-1.05-0.1c-0.333-0.167-0.55-0.417-0.65-0.75
		c-0.133-0.367-0.117-0.717,0.05-1.05c0.167-0.333,0.433-0.566,0.8-0.7c0.367-0.1,0.717-0.067,1.05,0.1
		C43.283,43.367,43.517,43.617,43.65,43.95z"/>
	<path style="fill-rule:evenodd;clip-rule:evenodd;fill:#9EF0E3;" d="M55.4,35.25c0.1,0.267,0.083,0.55-0.05,0.85
		c-0.167,0.267-0.4,0.45-0.7,0.55c-0.267,0.1-0.55,0.083-0.85-0.05c-0.267-0.167-0.45-0.383-0.55-0.65
		c-0.1-0.3-0.067-0.583,0.1-0.85c0.133-0.3,0.35-0.5,0.65-0.6c0.267-0.067,0.55-0.033,0.85,0.1C55.117,34.733,55.3,34.95,55.4,35.25
		z"/>
	<path style="fill-rule:evenodd;clip-rule:evenodd;fill:#9EF0E3;" d="M83.1,89.3c-0.033,0.267-0.149,0.483-0.35,0.65
		c-0.2,0.167-0.434,0.233-0.7,0.2c-0.233,0-0.45-0.1-0.649-0.3c-0.167-0.2-0.233-0.434-0.2-0.7s0.149-0.483,0.35-0.65
		c0.2-0.2,0.417-0.283,0.65-0.25c0.267,0.033,0.5,0.15,0.7,0.35C83.066,88.8,83.134,89.033,83.1,89.3z"/>
	<path style="fill-rule:evenodd;clip-rule:evenodd;fill:#9EF0E3;" d="M86.45,86.7c-0.066,0.367-0.25,0.517-0.55,0.45
		c-0.301,0-0.45-0.183-0.45-0.55c0-0.3,0.184-0.45,0.55-0.45C86.3,86.217,86.45,86.4,86.45,86.7z"/>
	<path style="fill-rule:evenodd;clip-rule:evenodd;fill:#C4F0E3;" d="M88,84.95c0,0.167-0.1,0.25-0.3,0.25
		c-0.167,0-0.25-0.1-0.25-0.3c0-0.167,0.1-0.25,0.3-0.25C87.983,84.65,88.066,84.75,88,84.95z"/>
	<path style="fill-rule:evenodd;clip-rule:evenodd;fill:#C4F0E3;" d="M91.3,90.55c-0.033,0.3-0.166,0.55-0.399,0.75
		s-0.5,0.3-0.801,0.3c-0.3-0.033-0.55-0.166-0.75-0.399c-0.199-0.233-0.283-0.5-0.25-0.8c0.034-0.3,0.167-0.55,0.4-0.75
		c0.2-0.2,0.467-0.283,0.8-0.25c0.3,0.033,0.55,0.15,0.75,0.35C91.25,89.983,91.333,90.25,91.3,90.55z"/>
	<path style="fill-rule:evenodd;clip-rule:evenodd;fill:#C4F0E3;" d="M93.75,89.65c0,0.2-0.066,0.367-0.2,0.5
		c-0.166,0.133-0.35,0.184-0.55,0.15c-0.434,0-0.65-0.25-0.65-0.75c0.067-0.5,0.317-0.716,0.75-0.65c0.2,0,0.367,0.083,0.5,0.25
		C93.733,89.283,93.783,89.45,93.75,89.65z"/>
	<path style="fill-rule:evenodd;clip-rule:evenodd;fill:#C4F0E3;" d="M91.2,87.35c-0.066,0.3-0.217,0.417-0.45,0.35
		c-0.233,0-0.35-0.133-0.35-0.4c0-0.3,0.133-0.417,0.399-0.35C91.066,86.95,91.2,87.083,91.2,87.35z"/>
	<path style="fill-rule:evenodd;clip-rule:evenodd;fill:#9EF0E3;" d="M86.6,89.65c-0.066,0.467-0.333,0.7-0.8,0.7
		c-0.467-0.067-0.7-0.333-0.7-0.8c0.067-0.533,0.334-0.767,0.801-0.7c0.199,0,0.366,0.083,0.5,0.25
		C86.566,89.267,86.634,89.45,86.6,89.65z"/>
	<path style="fill-rule:evenodd;clip-rule:evenodd;fill:#C4F0E3;" d="M91.4,83.85c0,0.267-0.117,0.4-0.351,0.4
		c-0.233-0.067-0.35-0.2-0.35-0.4c0-0.233,0.116-0.35,0.35-0.35S91.4,83.617,91.4,83.85z"/>
	<path style="fill-rule:evenodd;clip-rule:evenodd;fill:#C4F0E3;" d="M88,81.8c-0.033,0.167-0.116,0.317-0.25,0.45
		c-0.167,0.133-0.333,0.183-0.5,0.15c-0.467-0.066-0.667-0.3-0.6-0.7c0-0.434,0.233-0.65,0.699-0.65
		C87.783,81.117,88,81.367,88,81.8z"/>
	<path style="fill-rule:evenodd;clip-rule:evenodd;fill:#9EF0E3;" d="M54.6,1c2.6-0.067,4.633,0.267,6.1,1
		c1.466,0.733,1.4,1.333-0.2,1.8c-1.667,0.467-3.75,0.717-6.25,0.75c-2.633,0.034-4.517-0.216-5.65-0.75
		c-1.233-0.6-1.05-1.216,0.55-1.85C50.65,1.383,52.467,1.067,54.6,1z"/>
	<path style="fill-rule:evenodd;clip-rule:evenodd;fill:#9EF0E3;" d="M68.8,3.65c2.867,1.7,3.617,2.733,2.25,3.1
		S67.883,6.533,65.65,5c-2-1.367-2.367-2.167-1.1-2.4C65.783,2.367,67.2,2.717,68.8,3.65z"/>
	<path style="fill-rule:evenodd;clip-rule:evenodd;fill:#9EF0E3;" d="M62.95,4.85c1.533,0.367,2.6,0.933,3.2,1.7
		c0.6,0.733,0.533,1.35-0.2,1.85c-0.7,0.434-1.65,0.517-2.85,0.25c-1.133-0.233-2.217-0.733-3.25-1.5c-0.934-0.7-0.934-1.35,0-1.95
		C60.717,4.667,61.75,4.55,62.95,4.85z"/>
	<path style="fill-rule:evenodd;clip-rule:evenodd;fill:#9EF0E3;" d="M53.1,6.45C53.967,6.617,54.483,7,54.65,7.6
		c0.167,0.633-0.233,1.017-1.2,1.15c-1.034,0.167-1.867,0.15-2.5-0.05c-0.6-0.167-0.934-0.483-1-0.95c-0.034-0.467,0.3-0.833,1-1.1
		C51.617,6.35,52.333,6.283,53.1,6.45z"/>
	<path style="fill-rule:evenodd;clip-rule:evenodd;fill:#9EF0E3;" d="M70.75,8.9c0.4,0.467,0.467,0.917,0.2,1.35
		c-0.267,0.433-0.717,0.483-1.35,0.15c-1.4-0.767-1.85-1.45-1.35-2.05c0.233-0.267,0.633-0.35,1.2-0.25
		C69.983,8.233,70.417,8.5,70.75,8.9z"/>
	<path style="fill-rule:evenodd;clip-rule:evenodd;fill:#9EF0E3;" d="M43.55,3.95C44.617,3.617,45.433,3.633,46,4
		s0.333,0.85-0.7,1.45c-2.333,1.4-3.85,1.783-4.55,1.15c-0.333-0.333-0.183-0.783,0.45-1.35C41.8,4.683,42.583,4.25,43.55,3.95z"/>
	<path style="fill-rule:evenodd;clip-rule:evenodd;fill:#9EF0E3;" d="M80.5,12.85c-2.233-1.467-3.3-2.617-3.2-3.45
		c0.067-0.367,0.467-0.4,1.2-0.1c0.733,0.3,1.467,0.8,2.2,1.5c0.833,0.8,1.25,1.5,1.25,2.1S81.467,13.483,80.5,12.85z"/>
	<path style="fill-rule:evenodd;clip-rule:evenodd;fill:#9EF0E3;" d="M83.2,15.1c0.5,0.467,0.733,0.9,0.7,1.3
		c-0.034,0.434-0.367,0.467-1,0.1c-1.467-0.8-2.117-1.483-1.95-2.05c0.066-0.267,0.35-0.333,0.85-0.2S82.767,14.667,83.2,15.1z"/>
</g>
</svg>
