<?xml version="1.0" encoding="iso-8859-1"?>
<!-- Generator: Adobe Illustrator 15.1.0, SVG Export Plug-In . SVG Version: 6.00 Build 0)  -->
<!DOCTYPE svg PUBLIC "-//W3C//DTD SVG 1.1//EN" "http://www.w3.org/Graphics/SVG/1.1/DTD/svg11.dtd">
<svg version="1.1" id="Layer_3" xmlns="http://www.w3.org/2000/svg" xmlns:xlink="http://www.w3.org/1999/xlink" x="0px" y="0px"
	 width="128.35px" height="209.4px" viewBox="0 0 128.35 209.4" style="enable-background:new 0 0 128.35 209.4;"
	 xml:space="preserve">
<symbol  id="flash0.ai_x2F_Layer_3_x2F__x3C_Path_x3E_" viewBox="0 -13 63.9 12.991">
	<g id="Layer_1_2_">
		<path style="fill-rule:evenodd;clip-rule:evenodd;fill:#0D5069;" d="M63.9-3.85c-1.833-1.9-4.1-3.117-6.8-3.65
			c-2.1-0.4-4.75-0.4-7.95,0c1.567-0.767,2.9-1.967,4-3.6c-1.5,0.567-2.95,0.917-4.35,1.05c-1.033,0.066-2.5,0.05-4.4-0.05
			c-1.333-0.1-2.816-0.367-4.45-0.8c-1.8-0.5-3.233-0.867-4.3-1.1c-2.433-0.5-4.833-0.583-7.2-0.25c-2.733,0.6-4.667,0.95-5.8,1.05
			c-1.9,0.133-3.533-0.466-4.9-1.8c0,1,0.1,1.767,0.3,2.3c0.2,0.534,0.6,1.15,1.2,1.85c-3.1,0.5-5.267,0.667-6.5,0.5
			C9.683-9.017,7.5-9.417,6.2-9.55C4.067-9.75,2-9.35,0-8.35C0.933-8.383,1.767-8.3,2.5-8.1c0.533,0.133,1.317,0.45,2.35,0.95
			C6.817-6.183,10.317-5,15.35-3.6c-0.567,0.434-1.383,0.7-2.45,0.8c-1.2,0.033-2.083,0.1-2.65,0.2
			c-1.767,0.233-3.367,0.817-4.8,1.75c0.8-0.3,2-0.233,3.6,0.2c1.333,0.333,2.383,0.533,3.15,0.6c1.066,0.1,2.117,0.017,3.15-0.25
			c0.867-0.233,2.367-0.75,4.5-1.55c0.667-0.267,1.316-0.4,1.95-0.4c0.1,0,0.784,0.033,2.05,0.1C26.217-2.05,29.8-2.1,34.6-2.3
			c6.4,0,12.45-0.284,18.15-0.85c1.467-0.133,3.267-0.5,5.4-1.1C60.017-4.65,61.933-4.517,63.9-3.85z"/>
	</g>
</symbol>
<g>
	
		<use xlink:href="#flash0.ai_x2F_Layer_3_x2F__x3C_Path_x3E_"  width="63.9" height="12.991" y="-13" transform="matrix(1 0 0 -1 0.5 196.4004)" style="overflow:visible;opacity:0.4688;enable-background:new    ;"/>
	<g>
		
			<radialGradient id="SVGID_1_" cx="74.1777" cy="20.5972" r="72.6543" gradientTransform="matrix(0.9999 0.0108 0.0108 -0.9999 -0.4467 41.1919)" gradientUnits="userSpaceOnUse">
			<stop  offset="0" style="stop-color:#2A1624"/>
			<stop  offset="1" style="stop-color:#18B0B5"/>
		</radialGradient>
		<path style="fill-rule:evenodd;clip-rule:evenodd;fill:url(#SVGID_1_);" d="M84,36.2c5.167-3.3,10.583-3.883,16.25-1.75
			c4.8,1.8,8.1,4.55,9.9,8.25c2.699,5.4,7.083,11.5,13.149,18.3c0.867,0.967,1.851,2.067,2.95,3.3c0.733,1.034,1.167,2.4,1.3,4.1
			c0.167,2.067-0.3,3.733-1.399,5c-1.233,1.4-2.733,1.567-4.5,0.5c-0.367-0.233-0.483-0.633-0.351-1.2
			c0.066-0.467-0.149-0.667-0.649-0.6c-0.767,0.1-1.483,0.683-2.15,1.75c-0.667,1.133-1.583,1.8-2.75,2
			c-0.634,0.1-1.333-0.367-2.1-1.4c-0.567-0.833-1.301-0.8-2.2,0.1c-1.101,1.467-1.917,2.45-2.45,2.95
			c-0.833,0.8-2.017,1.017-3.55,0.65c-0.434-0.1-1.517-0.733-3.25-1.9c-1.3-0.9-2.45-1.183-3.45-0.85
			c-0.767,0.233-1.45,1.117-2.05,2.65c-0.8,2.067-1.267,3.2-1.4,3.4c-1.3,1.867-2.5,2.583-3.6,2.15c-1.4-1.1-2.634-2.033-3.7-2.8
			c-1.934-1.367-3.434-1.2-4.5,0.5c-0.667,1.067-1.934,3.25-3.8,6.55c-1.767,2.167-3.55,2.533-5.351,1.1
			c-0.699-0.567-2.199-2.5-4.5-5.8c-0.666-1.1-1.199-1.95-1.6-2.55c-0.7-1.1-1.384-1.767-2.05-2c-1.134-0.467-2.45-0.083-3.95,1.15
			c-1.6,1.333-2.933,1.917-4,1.75c-0.567-0.067-1.267-0.467-2.1-1.2c-0.566-0.466-1.3-0.466-2.2,0c-0.267,0.133-1.233,1.467-2.9,4
			c-1.2,1.833-2.55,2.3-4.05,1.4c-0.8-0.434-1.467-1.65-2-3.65c-0.467-1.8-1.4-2.833-2.8-3.1c-0.4-0.067-1.133,0.066-2.2,0.4
			c-0.867,0.3-1.583,0.233-2.15-0.2c-0.567-0.433-0.9-1.183-1-2.25c0-1.2-0.017-2.05-0.05-2.55c-0.333-3.567-1.45-4.6-3.35-3.1
			c-1.067,0.833-2.7,2.5-4.9,5c-3.333,2.7-5.683,2.967-7.05,0.8c-1.033-1.667-1.4-4.45-1.1-8.35c0.367-4.034-1.05-5.633-4.25-4.8
			c-1.9,0.633-3.333,1.083-4.3,1.35c-1.733,0.5-3.067,0.567-4,0.2C5.117,64.383,4.7,62.133,6.6,58.7
			c2.767-3.733,4.533-6.133,5.3-7.2c2.434-3.367,4.833-7.317,7.2-11.85c1.633-3.1,3.633-7.283,6-12.55
			c2.167-4.833,5.583-9.483,10.25-13.95c2.566-2.433,6.033-5.433,10.4-9c1.133-1.066,3.333,0.25,6.6,3.95
			c0.433,0.5,3.85,4.833,10.25,13c4.633,5.9,8.417,10.066,11.35,12.5C78.083,36.967,81.434,37.833,84,36.2z"/>
		
			<linearGradient id="SVGID_2_" gradientUnits="userSpaceOnUse" x1="-227.9536" y1="95.2803" x2="41.362" y2="95.2803" gradientTransform="matrix(0.3266 -0.9452 0.9452 0.3266 -4.357100e-005 -2.430677e-004)">
			<stop  offset="0" style="stop-color:#242224"/>
			<stop  offset="0.2392" style="stop-color:#27252E"/>
			<stop  offset="0.6392" style="stop-color:#302E49"/>
			<stop  offset="1" style="stop-color:#3A3866"/>
		</linearGradient>
		<path style="fill-rule:evenodd;clip-rule:evenodd;fill:url(#SVGID_2_);" d="M79.3,71.75c0.2,2.233-0.133,4.883-1,7.95
			c-0.533,1.966-1.55,3.85-3.05,5.65c-0.833,1.033-2.2,2.65-4.1,4.85c-1.2,1.667-1.817,3.783-1.851,6.35
			c-0.033,1.034,0.15,3.267,0.55,6.7c0.534,4.167,0.834,9.184,0.9,15.05c0.033,2.934-0.05,6.617-0.25,11.05
			c-0.167,3.4-0.217,5.084-0.15,5.051c2.034-0.467,4.184-1.617,6.45-3.45c2.267-1.867,4.066-3.967,5.4-6.3
			c2.1-3.767,2.866-7.15,2.3-10.15c-0.233-1.3-0.5-2.45-0.8-3.45l-0.351-1.1c0.5-0.4,1.101-0.783,1.801-1.15
			c1.399-0.767,2.566-1.05,3.5-0.85c0.966,0.2,1.383,1.316,1.25,3.35c-0.067,0.834-0.534,3.584-1.4,8.25
			c-0.767,4.134-1.667,7.316-2.7,9.55c-1.434,3.134-3.733,6.184-6.899,9.15c-0.801,0.733-2.95,2.35-6.45,4.85
			c-2.834,1.967-4.75,3.7-5.75,5.2c-6.034,8.834-9.167,13.45-9.4,13.851c-3.233,5.533-5.1,10.75-5.6,15.649
			c-0.067,0.667-0.167,3.101-0.3,7.3c-0.066,2.967-0.367,5.4-0.9,7.301c-0.467,1.633-0.75,2.583-0.85,2.85
			c-0.433,1.1-1,1.983-1.7,2.65c1.4-0.134,2.733,0,4,0.399c0.767,0.233,2.083,0.684,3.95,1.351c1.733,0.5,3.133,0.8,4.2,0.899
			c1.467,0.134,2.917,0.033,4.35-0.3c-1.167,0.566-2.083,0.983-2.75,1.25c-1.133,0.467-2.067,0.75-2.8,0.85
			c-1.566,0.2-3.566,0.2-6,0c-2.733-0.199-4.667-0.267-5.8-0.199c-1.267,0.066-1.967,0.116-2.1,0.149
			c-0.367,0.066-0.917,0.3-1.65,0.7c1.3-0.3,2.633-0.083,4,0.65c0.767,0.399,1.883,1.116,3.35,2.149
			c-2.133-0.399-3.617-0.649-4.45-0.75c-1.367-0.2-2.533-0.233-3.5-0.1c-4.4,0.5-8.083,1.05-11.05,1.649
			c-1.3,0.267-3.85,0.284-7.65,0.051c-2.566-0.167-4.233,0.333-5,1.5c0.034-0.733,0.167-1.267,0.4-1.601
			c0.167-0.3,0.633-0.717,1.4-1.25c0.833-0.6,2.483-1.05,4.95-1.35c-1.533,0.133-3.733-0.033-6.6-0.5
			c-3-0.467-5.284-0.667-6.85-0.601c-0.4,0.034-2.45,0.7-6.15,2c-2.567,0.9-4.633,0.733-6.2-0.5c1.967,0.467,3.667,0.25,5.1-0.649
			c1.566-1.3,3-2.25,4.3-2.851c1.267-0.6,2.867-0.866,4.8-0.8c2.466,0.101,3.933,0.117,4.4,0.05c-0.6-0.6-1.35-1.166-2.25-1.699
			c-0.967-0.567-1.833-0.917-2.6-1.051c-0.433-0.066-1.883,0.084-4.35,0.45c-1.967,0.267-3.183,0.066-3.65-0.6
			c0.867,0.2,1.933-0.033,3.2-0.7c1.833-1,2.933-1.55,3.3-1.65c1.167-0.366,2.433-0.399,3.8-0.1c1.267,0.267,2.217,0.25,2.85-0.05
			c-0.667-3.066-1.05-5.3-1.15-6.7c-0.2-2.2-0.033-4.434,0.5-6.7c1.5-6.434,5.667-13.383,12.5-20.85
			c1.733-1.867,4.467-4.65,8.2-8.351c3.633-3.533,6.267-6.216,7.9-8.05c10.467-11.6,14.783-28.1,12.95-49.5
			c-0.2-2.367-0.85-4.4-1.95-6.1c-0.7-1.034-1.967-2.4-3.8-4.1c-4.133-3.833-6.917-8.067-8.35-12.7c-0.633-1.566-1-2.683-1.1-3.35
			c-0.133-1.167,0.533-1.85,2-2.05c-0.233,0.033,0.433,1.55,2,4.55c1.533,2.9,2.483,4.567,2.85,5c3.033,3.633,6.267,6,9.7,7.1
			c0.767,0.5,1.1-0.533,1-3.1c-0.133-3.7-0.15-5.816-0.05-6.35c0.3-1.7,1.1-3.1,2.4-4.2c1.5-1.3,2.8-1.05,3.9,0.75
			c0.566,0.867,0.616,2.05,0.149,3.55c-0.267,0.833-0.684,2.017-1.25,3.55c-0.566,2.867-0.517,5.316,0.15,7.35
			c0.467,1.4,1.5,1.6,3.1,0.6c1.334-0.833,2.467-2,3.4-3.5c2.2-3.6,3.35-6.933,3.45-10C78.066,71.45,78.7,71.517,79.3,71.75z"/>
		
			<radialGradient id="SVGID_3_" cx="74.4375" cy="12.2959" r="70.5291" gradientTransform="matrix(0.9999 0.0108 0.0108 -0.9999 -0.2658 24.5903)" gradientUnits="userSpaceOnUse">
			<stop  offset="0" style="stop-color:#2A1624"/>
			<stop  offset="1" style="stop-color:#006986"/>
		</radialGradient>
		<path style="fill-rule:evenodd;clip-rule:evenodd;fill:url(#SVGID_3_);" d="M83.8,34.05c5.167-3.333,10.584-3.933,16.25-1.8
			c4.8,1.8,8.101,4.55,9.9,8.25c2.633,5.3,7.017,11.417,13.149,18.35c2.601,2.933,4.25,6.167,4.95,9.7
			c0.767,3.7,0.066,5.983-2.1,6.85c-1.967,0.8-3.684,0.55-5.15-0.75c-0.934-0.767-1.883-2.133-2.85-4.1
			c-0.767-1.5-1.233-2.3-1.4-2.4c-0.233-0.133-0.649,0.317-1.25,1.35c-0.5,0.967-1.366,1.283-2.6,0.95
			c-0.566-0.167-1.384-0.567-2.45-1.2c-0.167-0.1-0.3,0.8-0.4,2.7c-0.133,2.267-0.833,3.633-2.1,4.1c-1.467,0.534-3.3,0-5.5-1.6
			c-1.934-1.434-3.366-3-4.3-4.7s-1.533-2.567-1.8-2.6c-0.434,0-0.983,1.333-1.65,4c-0.667,2.633-1.9,4.434-3.7,5.4
			c-1.5,0.8-2.85,0.833-4.05,0.1c-0.233-0.133-1.233-1.033-3-2.7c-1.033-0.934-1.634-1.083-1.8-0.45
			c-0.134,0.567-0.15,1.883-0.05,3.95c-0.167,2-1,3.5-2.5,4.5c-2.9,1.9-6.45,0.2-10.65-5.1c-1.233-1.6-2.35-2.217-3.35-1.85
			c-0.467,0.167-1.5,1.033-3.101,2.6c-1.066,1.066-2.066,1.2-3,0.4c-0.5-0.467-1.167-1.517-2-3.15
			c-0.667-1.233-1.917-1.117-3.75,0.35c-2.2,1.767-3.85,2.417-4.95,1.95c-0.2-0.1-0.383-0.417-0.55-0.95
			c-0.133-0.467-0.483-0.717-1.05-0.75c-0.233,0-0.533,0.3-0.9,0.9c-0.367,0.633-0.717,0.983-1.05,1.05
			c-1.733,0.267-3.133-1.15-4.2-4.25c-0.333-2.066-0.633-3.75-0.9-5.05c-0.534-2.434-1.284-3.767-2.25-4
			c-0.867-0.233-2.317,1.117-4.35,4.05c-2.167,3.133-3.95,4.783-5.35,4.95c-2.067,0.233-3.067-1.283-3-4.55
			c0.033-1.066,0.4-3.55,1.1-7.45c0.367-1.9,0.25-3.133-0.35-3.7c-0.733-0.7-2.083-0.25-4.05,1.35c-3.434,2.8-6,4.65-7.7,5.55
			c-3.267,1.8-5.9,2.1-7.9,0.9c-2.067-1.233-2.383-3.517-0.95-6.85C6.283,55.717,8,53.267,10.3,51c1.667-1.7,3.883-5.05,6.65-10.05
			c2.633-4.733,5.283-10.083,7.95-16.05c2.167-4.8,5.583-9.433,10.25-13.9c2.567-2.433,6.033-5.433,10.4-9
			c1.133-1.067,3.333,0.25,6.6,3.95c0.434,0.5,3.85,4.833,10.25,13c4.633,5.9,8.417,10.066,11.35,12.5
			C77.884,34.817,81.233,35.683,83.8,34.05z"/>
		
			<radialGradient id="SVGID_4_" cx="94.6729" cy="-2.981" r="92.993" gradientTransform="matrix(0.9999 0.0109 0.0109 -0.9999 0.0651 -5.9614)" gradientUnits="userSpaceOnUse">
			<stop  offset="0" style="stop-color:#9EF0E3"/>
			<stop  offset="0.0431" style="stop-color:#93ECE3"/>
			<stop  offset="0.2157" style="stop-color:#6BDFE3"/>
			<stop  offset="0.302" style="stop-color:#5CDAE3"/>
			<stop  offset="0.4667" style="stop-color:#3EC7DD"/>
			<stop  offset="0.6902" style="stop-color:#1CB1D5"/>
			<stop  offset="0.8784" style="stop-color:#08A3D1"/>
			<stop  offset="1" style="stop-color:#009ECF"/>
		</radialGradient>
		<path style="fill-rule:evenodd;clip-rule:evenodd;fill:url(#SVGID_4_);" d="M113.3,44c1.134,1.967,2.517,4.05,4.15,6.25
			c1.133,1.533,1.767,2.6,1.899,3.2c0.167,0.9-0.116,1.617-0.85,2.15c-0.7,0.5-1.384,0.617-2.05,0.35c-1.101-0.4-1.517,0.5-1.25,2.7
			c0.066,0.833-0.184,1.184-0.75,1.05c-0.566-0.167-1.267-0.733-2.101-1.7c-1.267-1.467-2.149-2.4-2.649-2.8
			c-1.033-0.8-1.917-0.934-2.65-0.4c-2.1,1.6-4.133,1.434-6.1-0.5c-1.334-1.233-2.283-1.917-2.851-2.05c-0.8-0.167-1.216,0.5-1.25,2
			c-0.033,1.767-0.733,3.1-2.1,4c-1.434,0.9-2.866,0.733-4.3-0.5c-2.9-2.5-4.517-3.85-4.851-4.05c-1.5-0.934-2.517-0.717-3.05,0.65
			c-0.399,0.933-0.666,1.933-0.8,3c-0.267,2.233-0.434,3.583-0.5,4.05c-0.634,3.767-2.167,5.7-4.6,5.8
			c-1.334,0.066-3.184-1.1-5.551-3.5c-2.966-3.034-4.683-4.684-5.149-4.95c-1.4-0.833-2.767-1.067-4.1-0.7
			c-1.267,0.3-2.7,1.2-4.3,2.7c-1.633,1.533-3.316,2.183-5.05,1.95c-1.833-0.267-2.933-1.5-3.3-3.7c-0.5-2.967-0.784-4.55-0.85-4.75
			c-0.233-0.767-0.684-0.867-1.35-0.3c-1.233,1.066-2.617,1.733-4.15,2c-2.133,0.367-3.417-0.55-3.85-2.75
			c-0.267-1.4-0.35-3.867-0.25-7.4c0.067-2.533-0.217-3.9-0.85-4.1c-2.1-0.667-5.383,0.767-9.85,4.3
			c-3.833,3.067-6.033,4.783-6.6,5.15c-2.6,1.7-4.367,2.1-5.3,1.2c-0.833-0.8-0.833-2.083,0-3.85c1.133-2.367,1.7-3.933,1.7-4.7
			c0-0.3-0.65,0.217-1.95,1.55c-1.333,1.333-2.017,1.6-2.05,0.8c-0.033-1.2,0.733-3.133,2.3-5.8c2.033-3.267,3.533-5.8,4.5-7.6
			c2.3-4.9,4.4-9.033,6.3-12.4c3.5-6.3,7.216-11.3,11.15-15c4.533-4.267,9.2-5.983,14-5.15c4.033,0.733,8.35,3.316,12.95,7.75
			c1.066,1.033,2.867,3.65,5.4,7.85c2.866,4.8,4.816,7.867,5.85,9.2c1.8,2.267,3.283,3.6,4.45,4c1.066,0.367,2.233-0.033,3.5-1.2
			c2.533-2.333,4.583-3.816,6.15-4.45c3.466-1.434,6.949-0.934,10.449,1.5c3,2.1,5.7,5.417,8.101,9.95
			C110.217,37.233,111.667,40.3,113.3,44z"/>
		
			<radialGradient id="SVGID_5_" cx="85.5898" cy="97.8071" r="21.4263" gradientTransform="matrix(0.9999 0.0111 0.0111 -0.9999 -2.1683 195.6022)" gradientUnits="userSpaceOnUse">
			<stop  offset="0" style="stop-color:#2A1624"/>
			<stop  offset="1" style="stop-color:#006986"/>
		</radialGradient>
		<path style="fill-rule:evenodd;clip-rule:evenodd;fill:url(#SVGID_5_);" d="M79.75,114.65c-1,0.767-2.033,0.966-3.1,0.6
			c-2.2-0.733-2.034-3.35,0.5-7.85c1.166-2.134,4.649-2.784,10.449-1.95c5.634,0.833,9.134,2.25,10.5,4.25
			c1.2,1.733,1.851,3.184,1.95,4.35c0.101,0.967-0.2,1.55-0.899,1.75c-0.567,0.2-1.534-0.149-2.9-1.05
			c-1-0.634-1.517-0.533-1.55,0.3c0,1.101-0.467,1.816-1.4,2.15c-0.934,0.333-1.85,0.083-2.75-0.75
			c-1.133-1.101-1.916-1.834-2.35-2.2c-0.7-0.566-1.184-0.667-1.45-0.3c-0.366,0.5-0.85,0.899-1.45,1.2
			c-0.7,0.366-1.233,0.366-1.6,0c-0.134-0.167-0.384-0.817-0.75-1.95c-0.2-0.767-0.55-0.95-1.05-0.55
			C81.5,112.983,80.783,113.65,79.75,114.65z"/>
		
			<radialGradient id="SVGID_6_" cx="95.293" cy="92.9424" r="23.5265" gradientTransform="matrix(0.9999 0.0112 0.0112 -0.9999 -2.074 185.8734)" gradientUnits="userSpaceOnUse">
			<stop  offset="0" style="stop-color:#9EF0E3"/>
			<stop  offset="0.0431" style="stop-color:#93ECE3"/>
			<stop  offset="0.2157" style="stop-color:#6BDFE3"/>
			<stop  offset="0.302" style="stop-color:#5CDAE3"/>
			<stop  offset="0.4667" style="stop-color:#3EC7DD"/>
			<stop  offset="0.6902" style="stop-color:#1CB1D5"/>
			<stop  offset="0.8784" style="stop-color:#08A3D1"/>
			<stop  offset="1" style="stop-color:#009ECF"/>
		</radialGradient>
		<path style="fill-rule:evenodd;clip-rule:evenodd;fill:url(#SVGID_6_);" d="M85.8,89c3.233-0.9,5.566,0.667,7,4.7
			c0.767,2.167,1.483,5.25,2.15,9.25c0.366,1.133,1.083,2.616,2.149,4.45c0.834,1.399,1.2,2.233,1.101,2.5
			c-0.167,0.466-0.434,0.699-0.8,0.699c-0.367-0.033-0.9-0.3-1.601-0.8c-0.8-0.767-1.366-1.267-1.7-1.5
			c-0.533-0.366-1.017-0.3-1.449,0.2c-0.301,0.366-0.767,0.366-1.4,0c-0.5-0.233-0.967-0.583-1.4-1.05
			c-0.267-0.267-0.649-0.217-1.149,0.149c-0.3,0.233-0.934,0.801-1.9,1.7c-0.6,0.533-1.267,0.584-2,0.15
			c-0.566-0.3-1.1-0.851-1.6-1.65c-0.3-0.467-0.917-0.467-1.851,0c-1.333,0.7-2.133,1.066-2.399,1.101
			c-0.867,0.1-1.417-0.051-1.65-0.45c-0.333-0.467-0.25-1.334,0.25-2.601c1.434-3,2.566-5.733,3.4-8.2c1.2-3.5,1.816-5.3,1.85-5.4
			C83.634,90.417,84.634,89.333,85.8,89z"/>
		<path style="fill-rule:evenodd;clip-rule:evenodd;fill:#9EF0E3;" d="M43.35,2.3c1.7-0.6,3.033-0.7,4-0.3s1.033,0.917,0.2,1.55
			c-1.033,0.8-2.167,1.5-3.4,2.1c-1.7,0.8-3.25,1.233-4.65,1.3c-1.467,0.066-1.55-0.567-0.25-1.9
			C40.517,3.75,41.883,2.833,43.35,2.3z"/>
		<path style="fill-rule:evenodd;clip-rule:evenodd;fill:#9EF0E3;" d="M53.5,4.6c-0.133-0.967,0.917-1.1,3.15-0.4
			c2.267,0.7,3.167,1.417,2.7,2.15c-0.434,0.7-1.5,0.75-3.2,0.15C54.45,5.9,53.567,5.267,53.5,4.6z"/>
		<path style="fill-rule:evenodd;clip-rule:evenodd;fill:#9EF0E3;" d="M49.2,1.6c0.867-0.467,1.833-0.4,2.9,0.2
			c1.133,0.6,1.1,0.95-0.1,1.05c-0.9,0.066-1.633-0.117-2.2-0.55L49.2,1.6z"/>
		<path style="fill-rule:evenodd;clip-rule:evenodd;fill:#9EF0E3;" d="M62.05,8.4l0.6,0.45c0.467,0.4,0.867,0.867,1.2,1.4
			c0.5,0.733,0.8,1.417,0.9,2.05c0.1,0.7-0.217,0.817-0.95,0.35c-0.8-0.5-1.433-1.35-1.9-2.55C61.4,8.867,61.45,8.3,62.05,8.4z"/>
		<path style="fill-rule:evenodd;clip-rule:evenodd;fill:#9EF0E3;" d="M41.1,9.65c1.033,0.434,1.017,0.917-0.05,1.45
			c-1.1,0.533-2.117,0.733-3.05,0.6c-1-0.167-1-0.633,0-1.4C39.033,9.467,40.067,9.25,41.1,9.65z"/>
		<path style="fill-rule:evenodd;clip-rule:evenodd;fill:#9EF0E3;" d="M47.3,6.7c1.4-0.3,2.867-0.284,4.4,0.05
			c1.367,0.3,2.367,0.75,3,1.35c0.533,0.533,0.316,0.983-0.65,1.35c-0.9,0.333-1.933,0.45-3.1,0.35c-1.2-0.1-2.383-0.566-3.55-1.4
			C46.167,7.533,46.133,6.967,47.3,6.7z"/>
		<path style="fill-rule:evenodd;clip-rule:evenodd;fill:#CFF0ED;" d="M91.35,24.7c1.267-0.2,1.551,0,0.851,0.6
			c-0.7,0.6-1.584,1-2.65,1.2c-1.033,0.167-1.233-0.05-0.6-0.65C89.583,25.217,90.384,24.833,91.35,24.7z"/>
		<path style="fill-rule:evenodd;clip-rule:evenodd;fill:#CFF0ED;" d="M96,23.5c1.566,0.367,2.7,0.833,3.4,1.4
			c0.433,0.333,0.916,0.833,1.449,1.5c0.534,0.533,0.4,0.767-0.399,0.7c-0.834-0.067-1.917-0.45-3.25-1.15
			c-1.267-0.667-1.967-1.284-2.101-1.85C95,23.533,95.3,23.333,96,23.5z"/>
		<path style="fill-rule:evenodd;clip-rule:evenodd;fill:#CFF0ED;" d="M94.15,27.35c3,0.4,4.35,0.983,4.05,1.75
			c-0.334,0.833-1.351,1.066-3.05,0.7c-1.334-0.3-2.051-0.816-2.15-1.55C92.866,27.55,93.25,27.25,94.15,27.35z"/>
		<path style="fill-rule:evenodd;clip-rule:evenodd;fill:#CFF0ED;" d="M102.8,29.65c1.434,0.633,2.267,1.383,2.5,2.25
			c0.2,0.8-0.033,1.2-0.7,1.2c-0.5,0-1.083-0.65-1.75-1.95C102.184,29.883,102.167,29.383,102.8,29.65z"/>
		<path style="fill-rule:evenodd;clip-rule:evenodd;fill:#9EF0E3;" d="M36.7,30.2c-0.067,0.433-0.317,0.617-0.75,0.55
			c-0.167,0-0.317-0.067-0.45-0.2c-0.133-0.167-0.183-0.333-0.15-0.5c0-0.167,0.066-0.3,0.2-0.4c0.167-0.133,0.333-0.183,0.5-0.15
			C36.483,29.5,36.7,29.733,36.7,30.2z"/>
		<path style="fill-rule:evenodd;clip-rule:evenodd;fill:#9EF0E3;" d="M37.1,34.25c-0.067,0.633-0.417,0.917-1.05,0.85
			c-0.267,0-0.483-0.1-0.65-0.3c-0.2-0.2-0.283-0.433-0.25-0.7c0-0.233,0.1-0.45,0.3-0.65c0.233-0.167,0.483-0.233,0.75-0.2
			c0.267,0.033,0.5,0.15,0.7,0.35C37.067,33.8,37.133,34.017,37.1,34.25z"/>
		<path style="fill-rule:evenodd;clip-rule:evenodd;fill:#9EF0E3;" d="M32.45,35.5c-0.067,0.533-0.383,0.8-0.95,0.8
			c-0.233-0.033-0.433-0.133-0.6-0.3c-0.167-0.167-0.233-0.367-0.2-0.6c0-0.233,0.1-0.417,0.3-0.55c0.167-0.167,0.367-0.25,0.6-0.25
			C32.167,34.667,32.45,34.967,32.45,35.5z"/>
		<path style="fill-rule:evenodd;clip-rule:evenodd;fill:#9EF0E3;" d="M34.2,37.9c0,0.367-0.233,0.55-0.7,0.55
			c-0.4-0.067-0.6-0.284-0.6-0.65c0.067-0.433,0.3-0.617,0.7-0.55c0.167,0,0.316,0.067,0.45,0.2S34.233,37.733,34.2,37.9z"/>
		<path style="fill-rule:evenodd;clip-rule:evenodd;fill:#9EF0E3;" d="M29.45,39.95c-0.067,0.667-0.45,1-1.15,1
			c-0.3-0.034-0.533-0.167-0.7-0.4c-0.2-0.233-0.283-0.483-0.25-0.75c0-0.3,0.117-0.55,0.35-0.75c0.233-0.2,0.483-0.283,0.75-0.25
			c0.3,0.034,0.55,0.15,0.75,0.35C29.4,39.383,29.483,39.65,29.45,39.95z"/>
		<path style="fill-rule:evenodd;clip-rule:evenodd;fill:#9EF0E3;" d="M40.4,37.15c-0.033,0.233-0.133,0.434-0.3,0.6
			c-0.2,0.167-0.417,0.233-0.65,0.2c-0.534-0.067-0.8-0.383-0.8-0.95c0.033-0.233,0.15-0.433,0.35-0.6
			c0.167-0.167,0.367-0.233,0.6-0.2C40.2,36.267,40.467,36.583,40.4,37.15z"/>
		<path style="fill-rule:evenodd;clip-rule:evenodd;fill:#9EF0E3;" d="M100.65,48.05c-0.034,0.3-0.15,0.534-0.351,0.7
			c-0.233,0.2-0.483,0.283-0.75,0.25s-0.5-0.15-0.7-0.35c-0.199-0.233-0.283-0.483-0.25-0.75c0.034-0.267,0.15-0.5,0.351-0.7
			c0.233-0.2,0.483-0.284,0.75-0.25c0.267,0.033,0.5,0.15,0.7,0.35C100.6,47.533,100.684,47.783,100.65,48.05z"/>
		<path style="fill-rule:evenodd;clip-rule:evenodd;fill:#9EF0E3;" d="M104.2,45.3c0,0.333-0.184,0.5-0.55,0.5
			c-0.334-0.066-0.5-0.267-0.5-0.6c0.066-0.367,0.267-0.517,0.6-0.45C104.116,44.75,104.267,44.933,104.2,45.3z"/>
		<path style="fill-rule:evenodd;clip-rule:evenodd;fill:#C4F0E3;" d="M105.9,43.45c0,0.167-0.101,0.25-0.301,0.25
			c-0.199,0-0.3-0.1-0.3-0.3c0-0.2,0.117-0.3,0.351-0.3C105.816,43.1,105.9,43.217,105.9,43.45z"/>
		<path style="fill-rule:evenodd;clip-rule:evenodd;fill:#C4F0E3;" d="M109.4,49.45c-0.034,0.333-0.167,0.6-0.4,0.8
			s-0.517,0.283-0.85,0.25c-0.334-0.033-0.601-0.167-0.801-0.4c-0.233-0.233-0.333-0.517-0.3-0.85s0.167-0.6,0.4-0.8
			c0.233-0.233,0.517-0.333,0.85-0.3c0.334,0.033,0.601,0.184,0.8,0.45C109.333,48.833,109.434,49.117,109.4,49.45z"/>
		<path style="fill-rule:evenodd;clip-rule:evenodd;fill:#C4F0E3;" d="M112.05,48.45c-0.066,0.533-0.333,0.767-0.8,0.7
			c-0.533-0.066-0.767-0.333-0.7-0.8c0-0.233,0.084-0.417,0.25-0.55c0.167-0.133,0.351-0.183,0.55-0.15c0.2,0,0.367,0.083,0.5,0.25
			C112.017,48.067,112.083,48.25,112.05,48.45z"/>
		<path style="fill-rule:evenodd;clip-rule:evenodd;fill:#C4F0E3;" d="M109.3,46c-0.066,0.267-0.217,0.4-0.45,0.4
			c-0.267-0.066-0.399-0.217-0.399-0.45c0-0.267,0.149-0.4,0.45-0.4C109.167,45.55,109.3,45.7,109.3,46z"/>
		<path style="fill-rule:evenodd;clip-rule:evenodd;fill:#9EF0E3;" d="M104.4,48.45c-0.067,0.533-0.351,0.767-0.851,0.7
			c-0.233,0-0.416-0.083-0.55-0.25c-0.167-0.167-0.233-0.367-0.2-0.6c0.066-0.533,0.351-0.767,0.851-0.7
			C104.15,47.6,104.4,47.883,104.4,48.45z"/>
		<path style="fill-rule:evenodd;clip-rule:evenodd;fill:#C4F0E3;" d="M109.55,42.3c0,0.233-0.133,0.35-0.399,0.35
			s-0.4-0.133-0.4-0.4c0-0.233,0.134-0.35,0.4-0.35S109.55,42.033,109.55,42.3z"/>
		<path style="fill-rule:evenodd;clip-rule:evenodd;fill:#C4F0E3;" d="M105.85,40.05c0,0.2-0.066,0.367-0.199,0.5
			c-0.167,0.133-0.351,0.184-0.551,0.15c-0.466,0-0.699-0.25-0.699-0.75c0.066-0.467,0.333-0.7,0.8-0.7
			C105.7,39.317,105.917,39.583,105.85,40.05z"/>
	</g>
</g>
</svg>
