<?xml version="1.0" standalone="no"?>
<!DOCTYPE svg PUBLIC "-//W3C//DTD SVG 20010904//EN"
 "http://www.w3.org/TR/2001/REC-SVG-20010904/DTD/svg10.dtd">
<svg version="1.0" xmlns="http://www.w3.org/2000/svg"
 width="1024.000000pt" height="1024.000000pt" viewBox="0 0 1024.000000 1024.000000"
 preserveAspectRatio="xMidYMid meet">
<metadata>
Created by potrace 1.14, written by Peter Selinger 2001-2017
</metadata>
<g transform="translate(0.000000,1024.000000) scale(0.100000,-0.100000)"
fill="#000000" stroke="none">
<path d="M4465 8640 c-186 -34 -414 -118 -555 -204 -172 -105 -361 -279 -467
-429 -34 -48 -85 -135 -114 -192 l-52 -105 -163 0 c-267 0 -419 -31 -599 -122
-314 -158 -525 -398 -634 -721 -65 -193 -62 -69 -59 -2162 l4 -1900 21 -78
c130 -458 455 -780 914 -904 l104 -28 2160 0 c1738 0 2174 3 2229 13 170 32
366 116 496 212 62 46 187 167 244 237 55 66 136 208 170 296 68 175 78 230
85 468 l6 215 44 50 c194 219 271 594 180 869 -40 119 -79 184 -161 271 l-68
71 0 1056 c0 1127 1 1106 -49 1255 -67 200 -167 374 -295 511 -160 170 -459
338 -652 366 -27 4 -58 10 -69 13 -11 3 -227 7 -481 9 l-461 5 -27 56 c-16 31
-56 100 -90 152 -246 375 -608 625 -1031 711 -161 32 -475 37 -630 9z m446
-161 c270 -27 514 -121 719 -275 109 -82 243 -218 314 -317 42 -59 146 -250
146 -269 0 -4 -32 7 -70 24 -67 30 -74 36 -124 112 -58 89 -201 238 -312 326
-92 73 -295 176 -384 195 -3 1 -23 7 -45 13 -101 31 -271 52 -419 53 -83 0
-158 -2 -166 -5 -8 -3 -33 -7 -55 -10 -55 -6 -119 -21 -213 -51 l-81 -26 5
-35 c5 -42 -22 -86 -65 -109 -35 -17 -95 -4 -114 26 -6 10 -16 19 -20 19 -25
0 -187 -122 -280 -210 -101 -96 -235 -261 -229 -282 1 -5 -1 -7 -6 -4 -8 5
-34 -36 -86 -136 -32 -61 -31 -36 3 66 82 252 207 428 431 609 273 219 664
326 1051 286z m-274 -159 c8 0 28 -13 44 -29 59 -60 25 -162 -60 -176 -104
-17 -168 107 -92 178 27 26 56 37 79 31 8 -2 20 -4 29 -4z m884 -223 c19 -13
40 -39 48 -61 13 -34 13 -41 -3 -71 -20 -37 -53 -55 -99 -55 -54 1 -91 46 -89
107 2 56 39 92 103 102 3 1 21 -9 40 -22z m-93 -482 c259 -28 519 -105 648
-193 147 -100 206 -200 208 -357 1 -76 -16 -175 -31 -175 -2 0 -51 20 -110 46
-275 117 -651 183 -1065 185 -266 2 -429 -20 -738 -96 -152 -38 -279 -82 -359
-126 -30 -16 -58 -26 -63 -21 -11 11 -38 147 -38 192 0 54 32 151 70 210 41
64 112 128 186 167 130 69 429 151 629 173 130 14 509 11 663 -5z m1527 -109
c259 -4 293 -10 425 -65 163 -68 359 -222 469 -369 96 -127 166 -305 190 -476
12 -86 15 -1426 4 -1787 l-6 -217 -101 5 c-183 10 -308 -38 -479 -181 -43 -37
-97 -76 -120 -88 -41 -20 -238 -90 -243 -85 -12 14 -42 92 -38 98 3 5 22 13
43 19 126 34 221 169 221 316 0 65 -31 166 -66 218 l-27 40 16 62 c40 147 12
261 -87 360 -34 33 -78 69 -100 80 -33 16 -42 29 -66 90 -83 219 -263 463
-428 580 l-64 47 68 36 c84 44 144 99 144 132 0 59 -131 259 -252 385 l-78 81
32 69 c29 61 33 81 36 175 5 141 -7 192 -82 345 -35 71 -62 131 -61 134 3 5
188 4 650 -4z m-3729 -13 c-3 -10 -30 -121 -61 -248 -67 -280 -90 -331 -189
-421 l-70 -64 -111 6 c-129 7 -182 -4 -295 -61 -130 -66 -215 -178 -254 -336
-21 -85 -20 -129 3 -221 28 -107 64 -173 135 -244 127 -127 299 -177 477 -140
96 21 154 52 231 124 53 50 78 84 111 150 l42 85 0 131 c0 97 -4 142 -16 174
l-17 42 42 0 c92 0 220 30 290 68 23 12 16 -1 -36 -60 -36 -42 -71 -86 -78
-98 -19 -36 -4 -85 36 -118 35 -29 154 -92 174 -92 22 0 6 -17 -61 -65 -90
-64 -249 -228 -321 -330 -66 -95 -139 -236 -173 -339 -40 -120 -57 -213 -62
-356 -6 -151 9 -258 55 -385 19 -53 26 -91 26 -155 1 -70 6 -95 27 -140 27
-56 75 -113 118 -141 23 -14 23 -16 8 -44 -8 -17 -27 -68 -43 -115 -24 -74
-28 -100 -28 -205 0 -104 4 -130 27 -198 22 -62 27 -96 27 -170 0 -69 4 -98
16 -115 9 -13 14 -26 11 -28 -3 -3 -45 -11 -94 -19 -50 -7 -109 -23 -131 -34
-49 -25 -67 -26 -106 -6 -15 8 -38 15 -50 15 -12 0 -75 18 -140 41 -138 48
-267 61 -378 39 -99 -19 -214 -68 -284 -121 l-64 -48 0 1659 c0 1122 3 1684
11 1737 42 310 252 596 559 760 155 83 236 101 468 102 161 1 173 0 168 -16z
m1114 -785 c0 -79 5 -161 10 -182 19 -85 98 -160 193 -184 67 -17 81 -16 157
18 68 30 140 39 169 21 7 -5 25 -30 40 -57 18 -33 42 -58 75 -79 43 -26 58
-30 125 -29 108 0 174 38 226 131 13 22 29 34 54 39 48 10 67 7 128 -22 72
-34 104 -38 162 -24 76 18 135 62 165 122 25 49 26 60 26 215 0 186 -5 178 91
144 155 -53 274 -128 386 -243 69 -71 176 -216 168 -228 -9 -14 -97 -40 -137
-40 -58 0 -111 26 -152 75 -28 35 -44 45 -66 45 -62 0 -91 -73 -52 -131 9 -15
42 -51 73 -80 68 -66 103 -125 125 -209 24 -96 14 -186 -30 -275 -32 -63 -35
-74 -26 -110 58 -244 -127 -504 -360 -505 -25 0 -50 -4 -56 -8 -7 -4 -13 -46
-16 -98 -3 -74 -9 -101 -33 -150 -58 -118 -175 -201 -300 -213 l-60 -6 -7 -66
c-15 -160 -137 -270 -302 -273 -98 -1 -157 18 -216 71 -63 57 -99 129 -102
208 l-3 60 -60 7 c-129 14 -243 95 -301 214 -21 44 -28 74 -32 148 l-5 93 -66
5 c-96 7 -177 46 -246 119 -101 105 -139 231 -115 374 12 69 11 76 -8 107 -68
112 -72 270 -10 393 12 22 51 72 88 110 78 81 90 101 90 149 0 25 -6 39 -22
50 -37 26 -63 19 -115 -32 -29 -28 -65 -52 -89 -60 -78 -23 -218 -11 -267 23
-17 12 -13 18 41 86 108 134 250 252 385 321 51 25 249 97 270 98 4 0 7 -64 7
-142z m-1466 -128 c73 -28 147 -99 183 -175 23 -51 27 -73 27 -142 -1 -71 -5
-91 -33 -147 -39 -80 -111 -147 -189 -176 -153 -58 -340 20 -420 175 -34 66
-42 189 -18 262 58 175 270 270 450 203z m886 -595 c-5 -22 -10 -56 -10 -75 0
-31 -7 -41 -55 -79 -123 -98 -217 -222 -255 -336 -24 -71 -56 -105 -100 -105
-28 0 -52 20 -64 54 -4 13 9 50 38 110 66 134 162 256 281 355 67 56 166 124
171 118 2 -1 -1 -20 -6 -42z m2849 -149 c79 -91 132 -169 177 -258 24 -48 44
-90 44 -93 0 -3 -28 -5 -63 -5 -60 0 -63 1 -76 32 -17 39 -121 194 -153 228
-75 82 -78 87 -78 167 l0 75 53 -47 c28 -26 72 -70 96 -99z m336 -523 c73 -24
151 -105 160 -166 7 -45 0 -117 -11 -117 -3 0 -18 9 -34 20 -108 77 -289 88
-412 24 -44 -23 -114 -90 -128 -123 -11 -27 -15 -29 -83 -33 -40 -3 -74 -3
-76 -2 -8 6 30 146 50 186 28 56 113 137 175 168 136 67 245 81 359 43z
m-3135 -434 c25 -6 64 -22 88 -37 73 -46 112 -158 83 -235 -9 -24 -11 -25 -48
-11 -21 7 -75 13 -120 14 -109 0 -189 -26 -276 -91 -59 -45 -138 -130 -150
-162 -8 -22 -60 16 -92 67 -72 118 -13 280 139 378 114 73 261 104 376 77z
m2639 -155 c22 1 36 -1 29 -5 -8 -5 -4 -11 14 -18 42 -16 68 -48 68 -82 0 -68
-48 -96 -99 -58 -48 35 -176 23 -213 -21 -25 -28 -82 -27 -102 2 -22 30 -20
54 6 96 22 36 95 76 157 85 18 3 35 8 38 10 2 3 17 2 32 -3 15 -4 47 -7 70 -6z
m176 -34 c3 -5 2 -10 -4 -10 -5 0 -13 5 -16 10 -3 6 -2 10 4 10 5 0 13 -4 16
-10z m-2680 -243 c107 -63 141 -132 94 -191 -19 -24 -28 -27 -65 -24 -39 3
-48 9 -89 58 -47 57 -56 91 -34 133 21 39 55 48 94 24z m4105 -38 c82 -30 145
-81 194 -157 39 -61 82 -162 70 -162 -3 0 -25 20 -49 45 -60 61 -184 140 -253
161 -36 11 -86 17 -136 16 -69 -2 -86 -6 -145 -37 -36 -20 -95 -63 -131 -96
-36 -33 -83 -71 -105 -84 -39 -22 -166 -63 -346 -110 l-86 -22 15 51 c8 28 20
54 26 59 6 4 49 19 96 33 208 64 245 82 347 178 82 75 184 131 271 146 65 12
167 3 232 -21z m-1119 -201 c17 -63 12 -159 -12 -223 -51 -136 -200 -251 -389
-301 -98 -26 -270 -24 -333 4 -106 47 -169 128 -183 234 l-7 48 64 -26 c179
-73 370 -66 549 18 69 33 101 56 166 122 44 44 89 100 100 123 10 23 22 43 26
43 4 0 13 -19 19 -42z m-1087 -134 c3 -9 6 -32 6 -52 1 -20 7 -63 14 -94 8
-32 12 -58 8 -58 -3 0 -82 -18 -176 -40 -253 -58 -514 -117 -576 -129 -30 -6
-113 -23 -185 -37 -71 -14 -193 -39 -269 -55 -77 -16 -140 -28 -141 -26 -1 1
-7 29 -14 62 -8 33 -26 96 -42 139 -27 73 -39 166 -22 166 4 0 44 -16 88 -35
171 -73 369 -106 595 -99 208 7 441 90 625 223 39 28 73 50 76 51 4 0 10 -7
13 -16z m1725 -233 c92 -66 83 -208 -16 -255 -97 -46 -223 25 -223 127 0 123
140 198 239 128z m-1779 -186 c0 -8 5 -15 10 -15 6 0 10 -8 10 -18 0 -15 -19
-22 -107 -40 -114 -24 -230 -50 -453 -100 -231 -53 -691 -142 -729 -142 -17 0
-20 5 -17 31 4 34 19 49 52 49 12 0 66 9 119 20 54 11 107 22 119 24 113 22
352 72 436 91 58 13 148 33 200 45 52 12 142 32 200 45 127 28 160 30 160 10z
m-1425 -125 c0 -60 -5 -86 -26 -130 -48 -102 -145 -182 -275 -226 -94 -32
-264 -44 -356 -25 -67 14 -158 58 -209 100 -60 50 -107 165 -100 248 1 7 22
-4 49 -23 151 -113 366 -145 557 -84 118 38 228 110 293 191 56 70 66 63 67
-51z m2633 4 c17 -21 32 -41 32 -45 0 -21 -98 -104 -156 -131 -57 -27 -73 -30
-136 -26 -62 3 -73 7 -94 31 -33 39 -30 70 11 116 29 32 51 44 123 66 48 15
92 28 97 31 6 2 28 2 50 -1 31 -3 47 -12 73 -41z m-4294 -315 c102 -36 118
-39 216 -39 102 1 185 7 376 29 l91 11 46 -43 c26 -24 47 -45 47 -49 0 -3 -19
-8 -42 -11 -24 -3 -72 -10 -108 -16 -115 -17 -390 -34 -479 -28 -60 3 -115 15
-181 37 -210 72 -370 40 -506 -102 -34 -35 -76 -85 -95 -113 l-34 -50 -3 58
c-3 50 2 66 34 128 53 100 132 163 262 208 78 28 96 30 186 24 57 -3 110 -16
190 -44z m5326 -408 c-30 -225 -174 -459 -375 -610 -107 -79 -254 -153 -367
-183 l-83 -22 -1760 -2 -1760 -3 55 20 c30 11 309 83 620 160 796 197 780 193
935 238 77 22 158 43 180 46 67 11 73 14 98 58 54 92 189 204 295 246 72 29
175 51 233 51 153 0 324 -70 443 -181 83 -77 124 -136 162 -230 34 -85 49
-101 92 -97 24 2 41 11 55 31 20 25 20 31 8 89 -14 67 -43 132 -99 215 -19 29
-33 55 -31 57 4 3 38 9 449 81 525 91 616 114 765 195 l90 49 3 -62 c2 -34 -2
-100 -8 -146z m-3934 94 c32 -44 2 -110 -66 -145 -67 -34 -302 -23 -316 15 -9
23 24 83 53 98 24 13 94 34 168 51 11 3 49 4 84 2 49 -2 67 -6 77 -21z m-853
1 c114 -48 129 -196 28 -263 -73 -49 -182 -18 -221 63 -18 36 -19 48 -10 90
22 98 115 148 203 110z"/>
<path d="M4826 6108 c-43 -60 11 -148 127 -210 37 -20 57 -23 157 -23 106 0
120 2 172 28 112 55 169 156 118 207 -32 32 -74 26 -123 -18 -49 -45 -92 -62
-156 -62 -70 0 -116 17 -167 60 -54 48 -103 54 -128 18z"/>
</g>
</svg>
